<?xml version="1.0" encoding="UTF-8"?>
<svg version="1.1" xmlns="http://www.w3.org/2000/svg" width="512" height="512">
<path d="M0 0 C168.96 0 337.92 0 512 0 C512 168.96 512 337.92 512 512 C343.04 512 174.08 512 0 512 C0 343.04 0 174.08 0 0 Z " fill="#CE2B4E" transform="translate(0,0)"/>
<path d="M0 0 C98.34 0 196.68 0 298 0 C298 8.58 298 17.16 298 26 C287.605 26.495 287.605 26.495 277 27 C278.65 29.31 280.3 31.62 282 34 C286.33774863 43.71181946 286.70136103 55.90274561 283.375 65.9375 C281.35383261 70.75942791 278.72408486 75.28655539 275 79 C274.34 79 273.68 79 273 79 C272.67 79.99 272.34 80.98 272 82 C269 84 269 84 266 84 C266 84.66 266 85.32 266 86 C264.75108386 86.48198463 263.50081192 86.96045677 262.25 87.4375 C261.55390625 87.70433594 260.8578125 87.97117187 260.140625 88.24609375 C250.86722999 91.51208871 239.13591749 91.52424898 230.1953125 87.28125 C226.57423895 85.16788323 223.008899 82.94166104 220 80 C220 79.34 220 78.68 220 78 C219.01 77.67 218.02 77.34 217 77 C208.96810165 66.51561361 208.14710767 55.71465647 209 43 C210.14745501 37.49724128 213.11990207 32.76705864 216 28 C216.66 28 217.32 28 218 28 C218 27.34 218 26.68 218 26 C173.12 26.33 128.24 26.66 82 27 C83.65 29.31 85.3 31.62 87 34 C91.02716401 42.89274784 91.65207147 54.63466579 89.203125 64.0703125 C88.2666305 66.48358679 87.23270434 68.72594975 86 71 C85.46375 72.03125 84.9275 73.0625 84.375 74.125 C83.92125 74.74375 83.4675 75.3625 83 76 C82.34 76 81.68 76 81 76 C80.505 77.485 80.505 77.485 80 79 C79.34 79 78.68 79 78 79 C77.505 80.485 77.505 80.485 77 82 C74 84 74 84 71 84 C71 84.66 71 85.32 71 86 C69.75108386 86.48198463 68.50081192 86.96045677 67.25 87.4375 C66.55390625 87.70433594 65.8578125 87.97117187 65.140625 88.24609375 C55.86722999 91.51208871 44.13591749 91.52424898 35.1953125 87.28125 C31.57423895 85.16788323 28.008899 82.94166104 25 80 C25 79.34 25 78.68 25 78 C23.515 77.505 23.515 77.505 22 77 C18.62481933 72.67554977 16.64494968 68.17582893 15 63 C14.71962891 62.12988281 14.71962891 62.12988281 14.43359375 61.2421875 C12.03856473 48.85708245 14.59816859 38.59613474 21 28 C21.66 28 22.32 28 23 28 C23 27.34 23 26.68 23 26 C15.41 26 7.82 26 0 26 C0 17.42 0 8.84 0 0 Z " fill="#69BEC8" transform="translate(101,335)"/>
<path d="M0 0 C0.87032364 -0.00524185 1.74064728 -0.0104837 2.63734436 -0.0158844 C4.47558527 -0.02229954 6.31386726 -0.02097416 8.15209961 -0.01245117 C10.95956816 -0.0039459 13.76499827 -0.03270061 16.57226562 -0.06445312 C18.36067648 -0.06606543 20.14909092 -0.06548704 21.9375 -0.0625 C23.19239479 -0.07935097 23.19239479 -0.07935097 24.47264099 -0.09654236 C28.49296809 -0.04865347 30.52838606 0.11049955 33.99560547 2.32104492 C40.53532166 9.09482565 43.96996583 17.25293404 44.28515625 26.62109375 C44.05283078 30.1640572 43.49185047 32.26314163 42.03515625 35.43359375 C41.90109375 36.21476562 41.76703125 36.9959375 41.62890625 37.80078125 C40.01531939 44.95576511 34.78022804 50.14339255 28.96484375 54.2421875 C25.72700778 56.24125627 22.75232671 57.62046271 19.03515625 58.43359375 C18.45765625 58.61921875 17.88015625 58.80484375 17.28515625 58.99609375 C8.30735169 60.74177797 -0.0265937 58.48825807 -7.71484375 53.74609375 C-15.52157132 48.12855433 -19.67232327 40.70729242 -21.96484375 31.43359375 C-23.30176382 21.39918246 -20.08093127 13.59033197 -14.5625 5.37890625 C-10.20454809 0.07264696 -6.54717476 -0.02291875 0 0 Z " fill="#B4506C" transform="translate(141.96484375,360.56640625)"/>
<path d="M0 0 C0.8273465 -0.0066568 1.65469299 -0.0133136 2.5071106 -0.02017212 C4.2571592 -0.03029468 6.00724637 -0.03498926 7.75732422 -0.03466797 C10.42871098 -0.03903536 13.09843747 -0.07534098 15.76953125 -0.11328125 C17.47134853 -0.11915076 19.17317364 -0.12311925 20.875 -0.125 C21.67098602 -0.13937103 22.46697205 -0.15374207 23.28707886 -0.16854858 C27.21741761 -0.13633399 29.1152572 0.0436696 32.50561523 2.22119141 C39.10446762 8.98000179 42.50860517 17.20008358 42.8203125 26.5859375 C42.58072623 30.17973151 42.21493678 31.32734154 40.5703125 34.3359375 C40.17714844 35.16609375 39.78398437 35.99625 39.37890625 36.8515625 C34.17474113 47.23023937 26.74810876 54.17318741 15.72265625 57.97265625 C7.13661876 59.42184225 -2.35229712 56.03343076 -9.4296875 51.3359375 C-15.83769335 46.39437914 -18.83500357 40.51866027 -21.1796875 32.8984375 C-22.30843509 21.32877469 -20.05476938 13.19811245 -12.89453125 3.9296875 C-9.05621558 -0.24639995 -5.28035108 0.01468961 0 0 Z " fill="#C43959" transform="translate(338.4296875,360.6640625)"/>
<path d="M0 0 C1.36898437 -0.03673828 1.36898437 -0.03673828 2.765625 -0.07421875 C9.15256891 -0.10151338 14.41704846 0.91373572 19.875 4.375 C25.59662278 11.3839879 25.12360709 18.22984156 25.17016602 26.83374023 C25.18165314 28.31072596 25.20205328 29.78767125 25.23168945 31.2644043 C25.5399414 46.63394955 25.5399414 46.63394955 20.875 53.375 C14.11288239 58.86922056 8.10611678 58.55715037 -0.25 58.5625 C-1.26449219 58.57474609 -2.27898437 58.58699219 -3.32421875 58.59960938 C-4.77634766 58.60250977 -4.77634766 58.60250977 -6.2578125 58.60546875 C-7.58643311 58.61163208 -7.58643311 58.61163208 -8.94189453 58.61791992 C-11.125 58.375 -11.125 58.375 -13.125 56.375 C-13.38569641 54.09790039 -13.38569641 54.09790039 -13.3996582 51.22265625 C-13.40919022 50.14814209 -13.41872223 49.07362793 -13.42854309 47.96655273 C-13.42763168 46.80196533 -13.42672028 45.63737793 -13.42578125 44.4375 C-13.43006638 43.24648682 -13.4343515 42.05547363 -13.43876648 40.82836914 C-13.44451775 38.30648434 -13.44500421 35.78458295 -13.44067383 33.26269531 C-13.43751305 29.3909902 -13.46096716 25.52004808 -13.48632812 21.6484375 C-13.48860083 19.20312597 -13.48930475 16.75781237 -13.48828125 14.3125 C-13.497491 13.1479126 -13.50670074 11.9833252 -13.51618958 10.78344727 C-13.50996078 9.70893311 -13.50373199 8.63441895 -13.49731445 7.52734375 C-13.49794388 6.57851318 -13.4985733 5.62968262 -13.4992218 4.65209961 C-13.37572861 3.90065674 -13.25223541 3.14921387 -13.125 2.375 C-8.82712617 -0.49024922 -5.05690649 0.00696544 0 0 Z " fill="#FCD12B" transform="translate(226.125,185.625)"/>
<path d="M0 0 C8.91 0 17.82 0 27 0 C28.18396533 6.43287829 29.36039173 12.86578166 30.51269531 19.30419922 C30.89984536 21.44593809 31.30266676 23.58484298 31.7109375 25.72265625 C35.95026443 49.53047056 35.95026443 49.53047056 30.375 58.375 C26.13229295 63.49032055 21.495382 66.52024169 14.8125 67.4375 C9.07922466 66.77958316 5.30437464 63.76127651 1.640625 59.37109375 C-1.14836843 55.33917933 -2.12644853 52.02556817 -2.1328125 47.1953125 C-2.13482666 46.22907959 -2.13684082 45.26284668 -2.13891602 44.26733398 C-2.13432373 43.23036377 -2.12973145 42.19339355 -2.125 41.125 C-2.12234131 40.06031494 -2.11968262 38.99562988 -2.11694336 37.89868164 C-2.0750033 30.73754878 -1.89602461 23.59089462 -1.5625 16.4375 C-1.52334473 15.58881348 -1.48418945 14.74012695 -1.44384766 13.86572266 C-1.19669369 9.14896445 -0.6738275 4.71679251 0 0 Z " fill="#69BFC7" transform="translate(235,82)"/>
<path d="M0 0 C8.855657 -2.74917453 18.34848302 -3.86680264 27 0 C34.58294964 4.7917682 40.88915018 11.17483151 47.1875 17.5 C48.02461517 18.31665131 48.86173035 19.13330261 49.72421265 19.97470093 C64.7083708 34.79107036 64.7083708 34.79107036 65.25984192 43.80200195 C65.07582282 51.09343319 63.28515398 56.89476616 58 62 C53.83051786 65.62041453 49.65225328 67.93913162 44.015625 67.55078125 C38.75304129 66.11274966 34.61910741 62.21533884 31.5625 57.8125 C29.34702771 53.82464988 29.00910131 51.20480273 29.11743164 46.70825195 C29.15469768 36.45047506 25.49805031 31.68320142 18.50634766 24.59423828 C16.0360801 21.97983842 13.90417837 19.12572966 11.75 16.25 C10.93541503 15.17668909 10.12032416 14.10376192 9.3046875 13.03125 C8.16386719 11.53078125 8.16386719 11.53078125 7 10 C5.06566388 7.53181484 3.12657993 5.06766314 1.1796875 2.609375 C0 1 0 1 0 0 Z " fill="#69BEC8" transform="translate(341,82)"/>
<path d="M0 0 C-3.58076649 5.81498122 -7.28498005 11.46812554 -11.3671875 16.9453125 C-22.39903273 31.71064905 -22.39903273 31.71064905 -24.9375 49.4453125 C-25.04135155 55.3518692 -27.86537152 58.99741555 -32 63 C-35.79035301 66.24522359 -39.87366814 67.80312976 -44.953125 67.5078125 C-50.40704816 66.15473996 -54.60116607 61.93338104 -58 57.625 C-61.09609309 51.95243784 -61.69384645 45.36486234 -60.65673828 39.05615234 C-58.72813273 33.01796799 -53.17703889 28.75096192 -48.65380859 24.58447266 C-46.32850715 22.35665949 -44.36203517 19.90494095 -42.375 17.375 C-41.64796875 16.51003906 -40.9209375 15.64507812 -40.171875 14.75390625 C-37.89995915 11.9852146 -37.89995915 11.9852146 -35.953125 8.65234375 C-27.55647224 -3.98004712 -13.66873376 -1.12976712 0 0 Z " fill="#69BFC8" transform="translate(156,82)"/>
<path d="M0 0 C2.61376953 -0.34057617 2.61376953 -0.34057617 5.8828125 -0.29296875 C7.04941406 -0.28330078 8.21601563 -0.27363281 9.41796875 -0.26367188 C10.64128906 -0.23853516 11.86460937 -0.21339844 13.125 -0.1875 C14.97158203 -0.16719727 14.97158203 -0.16719727 16.85546875 -0.14648438 C19.90407843 -0.11103543 22.951825 -0.06162079 26 0 C25.38119522 7.37151194 23.84434173 14.28197607 22 21.4375 C21.72671875 22.52482422 21.4534375 23.61214844 21.171875 24.73242188 C19.14795354 32.70409292 19.14795354 32.70409292 18 35 C17.8328645 38.69555158 17.70342293 42.38500461 17.65820312 46.08398438 C17.42217647 52.73115376 15.81540256 57.01828674 11.1484375 61.9609375 C10.56320313 62.42757812 9.97796875 62.89421875 9.375 63.375 C8.78460938 63.85710937 8.19421875 64.33921875 7.5859375 64.8359375 C3.96051174 67.49696429 0.35381664 67.57072503 -4 67 C-9.72846528 64.13576736 -14.94837109 59.15488672 -17 53 C-18.38998643 39.7561484 -15.48758581 30.38209133 -9.625 18.625 C-8.91631599 17.13942682 -8.21057063 15.6524481 -7.5078125 14.1640625 C-2.67460286 4.01190429 -2.67460286 4.01190429 0 0 Z " fill="#68C0C8" transform="translate(182,82)"/>
<path d="M0 0 C8.91 0 17.82 0 27 0 C28.01320313 1.76085937 29.02640625 3.52171875 30.0703125 5.3359375 C31.07317766 7.07702285 32.07604971 8.81810423 33.07910156 10.55908203 C33.7659482 11.75160427 34.45248165 12.94430697 35.13867188 14.13720703 C36.13585493 15.87061441 37.1343307 17.60327791 38.1328125 19.3359375 C38.78233887 20.4695874 39.43186523 21.6032373 40.10107422 22.77124023 C41.29388448 24.79938573 42.52495449 26.80599287 43.80908203 28.77758789 C47.35506157 34.23662708 48.92733772 38.16305202 48.625 44.6875 C48.63466797 45.74807617 48.63466797 45.74807617 48.64453125 46.83007812 C48.51806717 53.06705658 46.48131661 57.37210772 42.1484375 61.9609375 C41.56320312 62.42757812 40.97796875 62.89421875 40.375 63.375 C39.78460938 63.85710937 39.19421875 64.33921875 38.5859375 64.8359375 C34.96051174 67.49696429 31.35381664 67.57072503 27 67 C21.27153472 64.13576736 16.05162891 59.15488672 14 53 C14.02320313 52.01257813 14.04640625 51.02515625 14.0703125 50.0078125 C14.2729528 35.62035118 8.64180736 23.25176652 3.22094727 10.18701172 C1.94688127 6.86134534 0.97838145 3.42433508 0 0 Z " fill="#68C0C9" transform="translate(288,82)"/>
<path d="M0 0 C21.50881207 -2.68071705 21.50881207 -2.68071705 28.44433594 1.45898438 C32.64104884 5.28946053 35.65357777 9.91277787 38.59326172 14.7421875 C40.67640968 18.08563636 43.11137911 21.11027758 45.5625 24.1875 C46.67818359 25.66283203 46.67818359 25.66283203 47.81640625 27.16796875 C49.9819299 30.09147685 49.9819299 30.09147685 52.7421875 32.80078125 C55.71886168 37.01859466 55.71605534 39.97002518 55.5625 45 C55.57345703 45.78117187 55.58441406 46.56234375 55.59570312 47.3671875 C55.51616884 53.66630249 53.6457876 57.33746691 49.1484375 61.86328125 C48.56320312 62.34152344 47.97796875 62.81976563 47.375 63.3125 C46.78460938 63.80363281 46.19421875 64.29476562 45.5859375 64.80078125 C41.99073565 67.51932058 38.35456684 67.57789579 34 67 C28.27226717 64.07997934 23.2759735 59.11866365 21 53 C21.0842273 50.6242093 21.19213624 48.24923425 21.3125 45.875 C21.25528334 31.68685816 10.78943061 18.98987592 3.40039062 7.51611328 C0 2.19131259 0 2.19131259 0 0 Z " fill="#FDD72B" transform="translate(315,82)"/>
<path d="M0 0 C8.58 0 17.16 0 26 0 C27.95222035 4.8468919 29.90303954 9.69068482 31.8203125 14.55078125 C33.1168204 17.82397909 34.45236788 21.06929994 35.8671875 24.29296875 C40.12615599 34.25725487 42.60347305 44.97559678 39.14453125 55.63671875 C37.95339277 57.77101125 36.74062024 59.2889534 35 61 C34.11054688 61.89138672 34.11054688 61.89138672 33.203125 62.80078125 C29.28145239 66.21263642 25.6537177 68.1323914 20.37890625 67.79296875 C14.89196391 65.96398797 9.79609246 61.06764833 6.89233398 56.1081543 C5.95135446 53.88507408 5.72106238 52.31072861 5.65625 49.91015625 C5.62805176 49.132771 5.59985352 48.35538574 5.57080078 47.55444336 C5.54743652 46.73210205 5.52407227 45.90976074 5.5 45.0625 C5.1798191 37.24315125 4.37938412 29.71040352 3 22 C2.5917197 19.62907279 2.18855785 17.25735087 1.78857422 14.88500977 C1.51834812 13.2858264 1.24410572 11.68731511 0.96533203 10.08959961 C0.37796894 6.65499957 0 3.49616575 0 0 Z " fill="#FDD72B" transform="translate(262,82)"/>
<path d="M0 0 C1.75957031 0.13825195 1.75957031 0.13825195 3.5546875 0.27929688 C4.75867188 0.32892578 5.96265625 0.37855469 7.203125 0.4296875 C10.15994447 0.55875502 13.10411831 0.73887369 16.0546875 0.96679688 C15.37811315 2.52444071 14.70103051 4.08186498 14.02197266 5.63842773 C13.40776738 7.04930996 12.79687466 8.46163796 12.18896484 9.87524414 C10.43145844 13.93341469 8.59808496 17.92843802 6.62109375 21.88476562 C2.18496882 30.91755927 -0.63233125 38.23186915 -0.7121582 48.35253906 C-0.80455177 55.51260839 -2.84718543 58.85517034 -7.73828125 63.76757812 C-11.66428897 67.17638723 -15.28940394 69.09932925 -20.56640625 68.75976562 C-26.15668523 66.8963393 -30.92962284 61.99033136 -34.15625 57.15039062 C-36.52977111 50.5820822 -36.84360804 43.68188737 -34.9453125 36.96679688 C-30.99907157 29.03698067 -25.57442196 21.8943495 -20.14648438 14.92553711 C-17.89079883 12.00319141 -17.89079883 12.00319141 -16.07226562 8.79125977 C-11.64258324 1.50630725 -8.56237138 -0.26456766 0 0 Z " fill="#FDD72B" transform="translate(165.9453125,81.033203125)"/>
<path d="M0 0 C8.58 0 17.16 0 26 0 C25.80598865 7.58175929 25.60046285 15.16136535 25.36523438 22.74169922 C25.28873598 25.31963041 25.21901582 27.89777213 25.15625 30.47607422 C25.0647692 34.18533489 24.94881711 37.89315146 24.828125 41.6015625 C24.79347137 43.32688705 24.79347137 43.32688705 24.75811768 45.08706665 C24.47975965 52.65669797 23.53224773 56.44539627 18.1484375 61.86328125 C17.56320313 62.34152344 16.97796875 62.81976563 16.375 63.3125 C15.78460938 63.80363281 15.19421875 64.29476562 14.5859375 64.80078125 C10.99073565 67.51932058 7.35456684 67.57789579 3 67 C-2.76788262 64.05951082 -7.6592331 59.1251786 -10 53 C-11.20518891 40.99885565 -9.32059269 30.5682584 -5.67578125 19.17822266 C-4.58124951 15.65025583 -3.67077402 12.07648473 -2.75 8.5 C-1.11607143 2.23214286 -1.11607143 2.23214286 0 0 Z " fill="#FED82A" transform="translate(209,82)"/>
<path d="M0 0 C4.61882353 3.69505883 6.78690722 7.34265497 7.51513672 13.28759766 C7.69670825 16.85199718 7.68272364 20.40686307 7.61230469 23.97436523 C7.57033541 26.21752548 7.57125593 28.45768355 7.578125 30.70117188 C7.46913316 45.70866142 7.46913316 45.70866142 2.5703125 51.3984375 C-4.3525616 56.62664971 -11.56495477 56.58663088 -19.9296875 55.65625 C-24.71419523 53.52749076 -28.03064081 50.56622304 -29.9296875 45.65625 C-30.14565859 42.86459684 -30.2575525 40.17513105 -30.265625 37.3828125 C-30.2756102 36.18076675 -30.2756102 36.18076675 -30.28579712 34.95443726 C-30.29590626 33.26164031 -30.30061468 31.56880366 -30.30029297 29.87597656 C-30.30466108 27.29685188 -30.3409824 24.71944653 -30.37890625 22.140625 C-30.38477598 20.49219332 -30.38874433 18.84375356 -30.390625 17.1953125 C-30.40499603 16.4294986 -30.41936707 15.66368469 -30.43417358 14.87466431 C-30.39025457 9.68280411 -29.31151369 6.79889024 -25.9296875 2.65625 C-18.31964656 -4.21134792 -9.14528816 -3.75547955 0 0 Z " fill="#FDD42B" transform="translate(309.9296875,263.34375)"/>
<path d="M0 0 C5.04037366 2.53371198 7.29637738 6.07663213 9.0625 11.375 C9.29155881 15.87704676 9.29082123 20.38153058 9.30273438 24.88867188 C9.31240503 27.10325178 9.34342266 29.31688917 9.375 31.53125 C9.38153429 32.95311952 9.38678309 34.37499565 9.390625 35.796875 C9.3999707 37.08174805 9.40931641 38.36662109 9.41894531 39.69042969 C8.96043411 44.43005373 7.7364359 48.4307932 4.5625 52.1171875 C-0.53011394 55.96317199 -3.92807137 56.56869026 -10.25 56.6875 C-11.54550781 56.72488281 -12.84101563 56.76226562 -14.17578125 56.80078125 C-19.73793063 56.17121294 -22.57771548 54.03854471 -26.07739258 49.75708008 C-28.38284279 45.56526989 -28.51877957 42.59932277 -28.46875 37.90625 C-28.4725769 37.10771606 -28.47640381 36.30918213 -28.48034668 35.4864502 C-28.48305711 33.80556978 -28.47575688 32.12464657 -28.45898438 30.44384766 C-28.43756 27.88217454 -28.45881321 25.32330544 -28.484375 22.76171875 C-28.48173157 21.12238969 -28.47660626 19.48306237 -28.46875 17.84375 C-28.47684692 17.08421021 -28.48494385 16.32467041 -28.49328613 15.54211426 C-28.40310534 10.38567452 -27.28583826 7.49201096 -23.9375 3.375 C-17.08636698 -2.80772979 -8.52023671 -3.40526874 0 0 Z " fill="#FDD42B" transform="translate(198.9375,187.625)"/>
<path d="M0 0 C5.04037366 2.53371198 7.29637738 6.07663213 9.0625 11.375 C9.29155881 15.87704676 9.29082123 20.38153058 9.30273438 24.88867188 C9.31240503 27.10325178 9.34342266 29.31688917 9.375 31.53125 C9.38153429 32.95311952 9.38678309 34.37499565 9.390625 35.796875 C9.3999707 37.08174805 9.40931641 38.36662109 9.41894531 39.69042969 C8.96043411 44.43005373 7.7364359 48.4307932 4.5625 52.1171875 C-0.53011394 55.96317199 -3.92807137 56.56869026 -10.25 56.6875 C-11.54550781 56.72488281 -12.84101563 56.76226562 -14.17578125 56.80078125 C-19.73793063 56.17121294 -22.57771548 54.03854471 -26.07739258 49.75708008 C-28.38284279 45.56526989 -28.51877957 42.59932277 -28.46875 37.90625 C-28.4725769 37.10771606 -28.47640381 36.30918213 -28.48034668 35.4864502 C-28.48305711 33.80556978 -28.47575688 32.12464657 -28.45898438 30.44384766 C-28.43756 27.88217454 -28.45881321 25.32330544 -28.484375 22.76171875 C-28.48173157 21.12238969 -28.47660626 19.48306237 -28.46875 17.84375 C-28.47684692 17.08421021 -28.48494385 16.32467041 -28.49328613 15.54211426 C-28.40310534 10.38567452 -27.28583826 7.49201096 -23.9375 3.375 C-17.08636698 -2.80772979 -8.52023671 -3.40526874 0 0 Z " fill="#FDD42B" transform="translate(156.9375,187.625)"/>
<path d="M0 0 C1.07314453 -0.02900391 2.14628906 -0.05800781 3.25195312 -0.08789062 C11.43273509 -0.15301626 16.8795769 0.96850265 22.90625 6.6328125 C25.85826155 11.79883272 25.09212322 17.55975049 24.4375 23.3125 C23.48528405 26.43902725 22.59923147 27.74179231 20.4375 30.3125 C17.79296875 31.484375 17.79296875 31.484375 15.4375 32.3125 C15.99179687 33.42109375 16.54609375 34.5296875 17.1171875 35.671875 C19.22395833 39.88541667 21.33072917 44.09895833 23.4375 48.3125 C23.81277832 49.00891602 24.18805664 49.70533203 24.57470703 50.42285156 C25.4375 52.3125 25.4375 52.3125 25.1875 54.4375 C24.4375 56.3125 24.4375 56.3125 22.4375 58.3125 C19.3125 58.4375 19.3125 58.4375 16.4375 58.3125 C14.43071599 54.69121557 12.4332352 51.06488357 10.4375 47.4375 C9.86515625 46.40496094 9.2928125 45.37242187 8.703125 44.30859375 C8.16171875 43.32246094 7.6203125 42.33632812 7.0625 41.3203125 C6.55976563 40.40910645 6.05703125 39.49790039 5.5390625 38.55908203 C4.4375 36.3125 4.4375 36.3125 4.4375 34.3125 C2.1275 34.3125 -0.1825 34.3125 -2.5625 34.3125 C-2.55202637 34.96847168 -2.54155273 35.62444336 -2.53076172 36.30029297 C-2.48927497 39.26265658 -2.46319738 42.22495916 -2.4375 45.1875 C-2.42074219 46.22003906 -2.40398437 47.25257813 -2.38671875 48.31640625 C-2.38027344 49.30253906 -2.37382812 50.28867188 -2.3671875 51.3046875 C-2.35671387 52.21589355 -2.34624023 53.12709961 -2.33544922 54.06591797 C-2.5625 56.3125 -2.5625 56.3125 -4.5625 58.3125 C-7.5625 58.5625 -7.5625 58.5625 -10.5625 58.3125 C-12.5625 56.3125 -12.5625 56.3125 -12.80973816 53.9907074 C-12.80831314 53.02109573 -12.80688812 52.05148407 -12.80541992 51.05249023 C-12.80849655 49.95472763 -12.81157318 48.85696503 -12.81474304 47.72593689 C-12.80755753 46.53633865 -12.80037201 45.34674042 -12.79296875 44.12109375 C-12.79251053 42.90551285 -12.79205231 41.68993195 -12.7915802 40.43751526 C-12.78855496 37.86433945 -12.78066063 35.29116552 -12.76831055 32.71801758 C-12.75006053 28.76311816 -12.74780075 24.80845273 -12.74804688 20.85351562 C-12.74313169 18.35937296 -12.73730336 15.86523189 -12.73046875 13.37109375 C-12.72935593 12.17947128 -12.7282431 10.98784882 -12.72709656 9.76011658 C-12.72071671 8.66550613 -12.71433685 7.57089569 -12.70776367 6.44311523 C-12.70395187 5.47429916 -12.70014008 4.50548309 -12.69621277 3.50730896 C-12.3594075 -2.02113252 -4.21355768 0.03702599 0 0 Z " fill="#FED72A" transform="translate(364.5625,185.6875)"/>
<path d="M0 0 C3.20439193 1.91393545 4.83108838 3.83263743 6.7265625 7.03125 C7.16244898 10.08752378 7.17684898 12.97573461 6.7265625 16.03125 C5.7265625 17.03125 5.7265625 17.03125 2.2890625 17.21875 C-1.2734375 17.03125 -1.2734375 17.03125 -3.2734375 15.03125 C-3.7375 13.5153125 -3.7375 13.5153125 -4.2109375 11.96875 C-4.5615625 10.999375 -4.9121875 10.03 -5.2734375 9.03125 C-8.82697679 7.8467369 -11.54357228 7.76483106 -15.2734375 8.03125 C-17.10273474 9.08863953 -17.10273474 9.08863953 -18.2734375 11.03125 C-18.63663059 14.00317762 -18.63663059 14.00317762 -18.4609375 17.21875 C-18.43386719 18.30542969 -18.40679687 19.39210938 -18.37890625 20.51171875 C-18.34410156 21.34316406 -18.30929688 22.17460937 -18.2734375 23.03125 C-17.54769531 22.71027344 -16.82195312 22.38929688 -16.07421875 22.05859375 C-11.07093623 20.22335902 -5.87803462 19.90820646 -0.91796875 22.046875 C2.49960792 24.11360625 4.48101282 25.66292548 6.7265625 29.03125 C6.94917619 31.68237668 7.05107253 34.19433758 7.0390625 36.84375 C7.05517578 37.54306641 7.07128906 38.24238281 7.08789062 38.96289062 C7.09236422 43.74516432 6.25081156 46.98043128 3.7265625 51.03125 C-1.23897924 55.51234864 -4.48003415 56.25580103 -11.0234375 56.34375 C-11.72726562 56.37275391 -12.43109375 56.40175781 -13.15625 56.43164062 C-18.32632249 56.49410433 -21.14264978 55.37818342 -25.2734375 52.03125 C-31.25129483 45.41290795 -30.61429554 37.70930191 -30.58911133 29.31176758 C-30.58595192 27.10382685 -30.60943413 24.89722846 -30.63476562 22.68945312 C-30.6370391 21.27343918 -30.63774189 19.85742166 -30.63671875 18.44140625 C-30.63969971 17.16402588 -30.64268066 15.88664551 -30.64575195 14.57055664 C-30.06995766 9.09692397 -28.03121335 5.18286149 -23.7734375 1.71875 C-23.185625 1.22761719 -22.5978125 0.73648437 -21.9921875 0.23046875 C-16.01922875 -3.93702747 -6.37611492 -2.83382885 0 0 Z " fill="#FDD32B" transform="translate(269.2734375,262.96875)"/>
<path d="M0 0 C1.0209375 0.00580078 1.0209375 0.00580078 2.0625 0.01171875 C4 0.3125 4 0.3125 7 2.3125 C7.85620117 4.14648438 7.85620117 4.14648438 8.54296875 6.40625 C8.80843506 7.25960937 9.07390137 8.11296875 9.34741211 8.9921875 C9.62464111 9.92289063 9.90187012 10.85359375 10.1875 11.8125 C10.62944702 13.25496094 10.62944702 13.25496094 11.08032227 14.7265625 C11.71824513 16.81001092 12.3521088 18.8947055 12.98242188 20.98046875 C14.04006378 24.44368772 15.13330413 27.89410826 16.234375 31.34375 C16.96904379 33.66657377 17.70342448 35.98948868 18.4375 38.3125 C18.96863403 39.96668945 18.96863403 39.96668945 19.51049805 41.65429688 C19.83574463 42.69650391 20.16099121 43.73871094 20.49609375 44.8125 C20.78669678 45.7303125 21.0772998 46.648125 21.37670898 47.59375 C22.06061183 50.57688439 22.10794364 53.26204075 22 56.3125 C18.86501708 58.17026765 16.62528568 58.51390476 13 58.3125 C11.66666667 54.3125 10.33333333 50.3125 9 46.3125 C3.06 45.9825 -2.88 45.6525 -9 45.3125 C-9.474375 47.271875 -9.94875 49.23125 -10.4375 51.25 C-11.875 57.1875 -11.875 57.1875 -13 58.3125 C-18.21848739 58.76628151 -18.21848739 58.76628151 -20.9375 57.1875 C-22.83979541 53.83050811 -21.22245488 50.12540193 -20.24731445 46.56201172 C-19.9555835 45.63146973 -19.66385254 44.70092773 -19.36328125 43.7421875 C-19.03610107 42.68974854 -18.7089209 41.63730957 -18.37182617 40.55297852 C-18.02224854 39.44237061 -17.6726709 38.3317627 -17.3125 37.1875 C-14.20060666 27.24779781 -14.20060666 27.24779781 -11.2421875 17.26171875 C-10.97752686 16.34729004 -10.71286621 15.43286133 -10.44018555 14.49072266 C-9.94952269 12.7855777 -9.46624224 11.07828579 -8.99145508 9.36865234 C-7.41538365 3.93054274 -6.20290216 -0.15272297 0 0 Z " fill="#FDD42B" transform="translate(327,185.6875)"/>
<path d="M0 0 C0.99128906 0.00902344 1.98257812 0.01804687 3.00390625 0.02734375 C4.20853516 0.04474609 4.20853516 0.04474609 5.4375 0.0625 C5.7675 0.0625 6.0975 0.0625 6.4375 0.0625 C9.4375 0.0625 12.4375 0.0625 15.4375 0.0625 C15.5189222 2.29105574 15.57688079 4.52047655 15.625 6.75 C15.67720703 8.61205078 15.67720703 8.61205078 15.73046875 10.51171875 C15.4221829 14.24814321 14.61838273 16.06879483 12.4375 19.0625 C10.7875 17.7425 9.1375 16.4225 7.4375 15.0625 C7.27938612 18.11520463 7.27938612 18.11520463 8.4375 21.0625 C2.8125 21.3125 2.8125 21.3125 -0.5625 19.0625 C-1.2225 19.3925 -1.8825 19.7225 -2.5625 20.0625 C-2.8925 20.0625 -3.2225 20.0625 -3.5625 20.0625 C-3.5625 20.3925 -3.5625 20.7225 -3.5625 21.0625 C-7.8525 21.0625 -12.1425 21.0625 -16.5625 21.0625 C-16.5625 21.7225 -16.5625 22.3825 -16.5625 23.0625 C-15.24894531 23.02769531 -13.93539063 22.99289062 -12.58203125 22.95703125 C-10.84636699 22.92888534 -9.11068885 22.90158604 -7.375 22.875 C-6.07852539 22.83729492 -6.07852539 22.83729492 -4.75585938 22.79882812 C0.16788334 22.74223338 3.40581189 22.88222429 7.4375 26.0625 C5.4375 29.0625 5.4375 29.0625 3.0546875 29.79296875 C2.14976562 29.94378906 1.24484375 30.09460938 0.3125 30.25 C-0.59757812 30.40855469 -1.50765625 30.56710937 -2.4453125 30.73046875 C-3.14398438 30.84003906 -3.84265625 30.94960938 -4.5625 31.0625 C-2.5825 31.0625 -0.6025 31.0625 1.4375 31.0625 C0.4475 32.0525 -0.5425 33.0425 -1.5625 34.0625 C0.55737606 34.27407981 0.55737606 34.27407981 2.1875 32.625 C4.92120462 30.72659401 7.16513472 30.43435969 10.4375 30.0625 C9.5625 35.8125 9.5625 35.8125 8.4375 38.0625 C9.0975 38.3925 9.7575 38.7225 10.4375 39.0625 C11.0975 38.0725 11.7575 37.0825 12.4375 36.0625 C13.9225 45.9625 13.9225 45.9625 15.4375 56.0625 C5.56369057 56.0625 -1.74205459 53.7630269 -8.9140625 46.83984375 C-15.43805801 39.80567798 -18.25440882 31.11957933 -17.91015625 21.5703125 C-16.82000099 13.7064959 -12.87062942 6.87111019 -7.5625 1.0625 C-4.93185526 -0.25282237 -2.9326656 -0.03441198 0 0 Z " fill="#C93354" transform="translate(334.5625,361.9375)"/>
<path d="M0 0 C0.77870956 -0.00478363 1.55741913 -0.00956726 2.35972595 -0.01449585 C3.99773186 -0.01788285 5.63580648 -0.00876448 7.27368164 0.01220703 C9.77448556 0.03903184 12.27081744 0.01240575 14.77148438 -0.01953125 C16.36849944 -0.01622764 17.96551173 -0.0098224 19.5625 0 C20.3053273 -0.01012115 21.0481546 -0.02024231 21.81349182 -0.03067017 C25.78821924 0.05869446 27.51730115 0.50028033 30.61621094 3.06958008 C37.31773345 11.35448931 40.86896924 17.76739041 40.71484375 28.6640625 C37.46491929 28.72225674 34.2151294 28.75772366 30.96484375 28.7890625 C30.04445312 28.80582031 29.1240625 28.82257813 28.17578125 28.83984375 C26.84160156 28.84951172 26.84160156 28.84951172 25.48046875 28.859375 C24.25505371 28.87508545 24.25505371 28.87508545 23.00488281 28.89111328 C20.49596857 28.64236166 18.8808875 27.92106379 16.71484375 26.6640625 C16.71484375 24.99739583 16.71484375 23.33072917 16.71484375 21.6640625 C15.39484375 21.6640625 14.07484375 21.6640625 12.71484375 21.6640625 C12.71484375 19.6840625 12.71484375 17.7040625 12.71484375 15.6640625 C11.06484375 17.3140625 9.41484375 18.9640625 7.71484375 20.6640625 C5.71484375 18.6640625 5.71484375 18.6640625 4.77734375 16.7265625 C3.67862559 14.59375666 2.47897191 13.26781537 0.71484375 11.6640625 C0.52994368 13.98763761 0.52994368 13.98763761 2.71484375 16.6640625 C2.71484375 17.3240625 2.71484375 17.9840625 2.71484375 18.6640625 C3.3495845 20.01288658 4.01333223 21.3487284 4.71484375 22.6640625 C-0.91015625 22.9140625 -0.91015625 22.9140625 -4.28515625 20.6640625 C-5.27515625 21.3240625 -6.26515625 21.9840625 -7.28515625 22.6640625 C-10.421875 22.859375 -10.421875 22.859375 -13.97265625 22.7890625 C-15.15214844 22.77101563 -16.33164063 22.75296875 -17.546875 22.734375 C-18.45050781 22.71117187 -19.35414062 22.68796875 -20.28515625 22.6640625 C-20.57386212 17.99665099 -19.92388765 15.18208346 -17.66015625 11.1015625 C-17.17289062 10.19277344 -16.685625 9.28398437 -16.18359375 8.34765625 C-11.63346779 1.91568807 -7.82617791 -0.10692445 0 0 Z " fill="#C73556" transform="translate(143.28515625,360.3359375)"/>
<path d="M0 0 C3.3334274 2.00700108 5.66506846 3.79554787 7.5 7.3125 C7.86185062 10.67928401 7.88022799 13.94654732 7.5 17.3125 C6.5 18.3125 6.5 18.3125 3.0625 18.5 C-0.5 18.3125 -0.5 18.3125 -2.5 16.3125 C-2.9640625 14.8275 -2.9640625 14.8275 -3.4375 13.3125 C-4.25927075 10.04028248 -4.25927075 10.04028248 -7.5 8.3125 C-12.05364376 7.80500385 -12.05364376 7.80500385 -16.19384766 9.3828125 C-18.204481 12.35328838 -17.88923699 14.94947757 -17.8984375 18.5 C-17.90130768 19.19891357 -17.90417786 19.89782715 -17.90713501 20.61791992 C-17.90917425 22.09392101 -17.90365403 23.56994921 -17.89111328 25.04589844 C-17.8750558 27.30465138 -17.8909647 29.56161518 -17.91015625 31.8203125 C-17.90817379 33.25521228 -17.90433006 34.69011095 -17.8984375 36.125 C-17.89505371 37.43082031 -17.89166992 38.73664063 -17.88818359 40.08203125 C-17.77004764 43.26529493 -17.77004764 43.26529493 -16.11206055 45.23681641 C-13.96902266 46.66680655 -12.49859762 46.71281563 -9.9375 46.6875 C-9.15246094 46.69523437 -8.36742187 46.70296875 -7.55859375 46.7109375 C-6.87925781 46.57945312 -6.19992187 46.44796875 -5.5 46.3125 C-3.50624891 43.32187337 -2.60571418 40.70335683 -1.5 37.3125 C-0.5 36.3125 -0.5 36.3125 3 36.1875 C6.5 36.3125 6.5 36.3125 7.5 37.3125 C7.95100609 41.51032593 7.96406632 45.21339555 6.3125 49.125 C3.20754068 52.87236469 0.32993467 55.43962024 -4.5 56.3125 C-17.94597712 57.30069832 -17.94597712 57.30069832 -22.1875 54.5625 C-26.69156496 50.18016652 -29.2592691 46.30120083 -29.7746582 39.90258789 C-29.82447428 32.52748026 -29.82447428 32.52748026 -29.81567383 29.59301758 C-29.81251442 27.38507685 -29.83599663 25.17847846 -29.86132812 22.97070312 C-29.8636016 21.55468918 -29.86430439 20.13867166 -29.86328125 18.72265625 C-29.86626221 17.44527588 -29.86924316 16.16789551 -29.87231445 14.85180664 C-29.29652016 9.37817397 -27.25777585 5.46411149 -23 2 C-22.4121875 1.50886719 -21.824375 1.01773438 -21.21875 0.51171875 C-15.50600162 -3.4742216 -6.09550569 -2.84686518 0 0 Z " fill="#FDD32B" transform="translate(297.5,187.6875)"/>
<path d="M0 0 C3.86920067 2.28993509 6.06284398 4.81318797 8.0625 8.8125 C8.98407281 15.15818704 7.81259476 19.16861496 4.15625 24.37890625 C3.7953125 24.85199219 3.434375 25.32507813 3.0625 25.8125 C4.5475 27.111875 4.5475 27.111875 6.0625 28.4375 C10.04635703 33.05386514 9.79444315 37.68266548 9.5078125 43.55859375 C8.82815671 48.52485057 7.39673343 50.95918903 3.5078125 54.046875 C-2.69984158 57.93664966 -9.87308084 57.62730221 -16.9375 56.8125 C-21.29408686 55.57090948 -23.96480177 53.16837041 -26.375 49.375 C-27.8179893 46.08498439 -28.5378129 44.31432526 -27.9375 40.8125 C-25.9375 38.8125 -25.9375 38.8125 -22.4375 38.5625 C-18.9375 38.8125 -18.9375 38.8125 -16.9375 40.8125 C-16.7725 41.658125 -16.6075 42.50375 -16.4375 43.375 C-16.2725 44.179375 -16.1075 44.98375 -15.9375 45.8125 C-13.46933586 47.04658207 -11.69088799 47.01447579 -8.9375 47.0625 C-8.050625 47.08828125 -7.16375 47.1140625 -6.25 47.140625 C-5.486875 47.03234375 -4.72375 46.9240625 -3.9375 46.8125 C-1.832316 43.654724 -1.68460656 42.85852866 -1.75 39.25 C-1.75644531 38.46496094 -1.76289063 37.67992187 -1.76953125 36.87109375 C-1.81385911 34.74895328 -1.81385911 34.74895328 -2.9375 32.8125 C-5.05077425 31.90524566 -5.05077425 31.90524566 -7.5 31.1875 C-8.73943359 30.79691406 -8.73943359 30.79691406 -10.00390625 30.3984375 C-10.64199219 30.20507812 -11.28007812 30.01171875 -11.9375 29.8125 C-11.9375 27.8325 -11.9375 25.8525 -11.9375 23.8125 C-11.37160156 23.61914062 -10.80570313 23.42578125 -10.22265625 23.2265625 C-9.48917969 22.96617187 -8.75570312 22.70578125 -8 22.4375 C-7.26910156 22.18226563 -6.53820312 21.92703125 -5.78515625 21.6640625 C-3.75067884 20.95978587 -3.75067884 20.95978587 -2.9375 18.8125 C-2.43714394 14.19734203 -2.43714394 14.19734203 -4.16015625 10.1015625 C-6.45941959 8.43396491 -7.81582546 8.50286198 -10.625 8.625 C-11.83736328 8.66560547 -11.83736328 8.66560547 -13.07421875 8.70703125 C-13.68910156 8.74183594 -14.30398437 8.77664063 -14.9375 8.8125 C-15.246875 9.946875 -15.55625 11.08125 -15.875 12.25 C-16.9375 15.8125 -16.9375 15.8125 -17.9375 16.8125 C-21.4375 16.9375 -21.4375 16.9375 -24.9375 16.8125 C-25.9375 15.8125 -25.9375 15.8125 -26.375 12.1875 C-26.32676745 7.71795064 -24.65755884 5.50145427 -21.73828125 2.2578125 C-15.81786962 -2.49392786 -6.93172449 -2.63495359 0 0 Z " fill="#FDD52A" transform="translate(226.9375,262.1875)"/>
<path d="M0 0 C1.02975197 0.01077827 1.02975197 0.01077827 2.08030701 0.02177429 C2.78537888 0.02223251 3.49045074 0.02269073 4.21688843 0.02316284 C5.70726708 0.02618442 7.1976426 0.03406794 8.68797302 0.0464325 C10.97706709 0.06469849 13.26575703 0.06694213 15.55491638 0.06669617 C17.00088344 0.07161098 18.44684775 0.07743915 19.89280701 0.08427429 C20.92559532 0.08594353 20.92559532 0.08594353 21.97924805 0.08764648 C26.80409576 0.13618805 26.80409576 0.13618805 27.92015076 1.25224304 C28.04515076 4.75224304 28.04515076 4.75224304 27.92015076 8.25224304 C26.92015076 9.25224304 26.92015076 9.25224304 24.60350037 9.36576843 C23.60326843 9.36053162 22.6030365 9.3552948 21.57249451 9.34989929 C20.49290466 9.34667664 19.41331482 9.34345398 18.30101013 9.34013367 C17.16470154 9.33175476 16.02839294 9.32337585 14.85765076 9.31474304 C13.71747498 9.31023132 12.57729919 9.3057196 11.40257263 9.30107117 C8.57507658 9.28924064 5.74760731 9.27130455 2.92015076 9.25224304 C2.92015076 14.53224304 2.92015076 19.81224304 2.92015076 25.25224304 C6.32327576 25.19036804 6.32327576 25.19036804 9.79515076 25.12724304 C13.66233826 25.05693054 13.66233826 25.05693054 16.92015076 25.25224304 C17.58015076 25.91224304 18.24015076 26.57224304 18.92015076 27.25224304 C18.3645952 31.8077986 18.3645952 31.8077986 16.92015076 33.25224304 C14.73375623 33.3248325 12.54514687 33.33598087 10.35765076 33.31474304 C8.56134216 33.30120789 8.56134216 33.30120789 6.72874451 33.28739929 C5.80190857 33.27579773 4.87507263 33.26419617 3.92015076 33.25224304 C3.94371643 34.28164001 3.94371643 34.28164001 3.96775818 35.33183289 C4.02997794 38.43021967 4.06909974 41.52847528 4.10765076 44.62724304 C4.14535583 46.2475946 4.14535583 46.2475946 4.18382263 47.90068054 C4.19832458 49.44755554 4.19832458 49.44755554 4.21311951 51.02568054 C4.23668518 52.45533142 4.23668518 52.45533142 4.26072693 53.91386414 C4.09214172 55.07136169 4.09214172 55.07136169 3.92015076 56.25224304 C0.46769252 58.55388187 -1.02723637 58.59714627 -5.07984924 58.25224304 C-7.65544052 55.67665176 -7.33263603 54.67907625 -7.33863831 51.09989929 C-7.34494263 50.02538513 -7.35124695 48.95087097 -7.35774231 47.84379578 C-7.35369385 46.67920837 -7.34964539 45.51462097 -7.34547424 44.31474304 C-7.3473877 43.12372986 -7.34930115 41.93271667 -7.35127258 40.70561218 C-7.35263555 38.18371876 -7.34893141 35.66181835 -7.34059143 33.13993835 C-7.32989378 29.26835956 -7.3404833 25.39724482 -7.35328674 21.52568054 C-7.35196517 19.08036701 -7.34940282 16.63505377 -7.34547424 14.18974304 C-7.34952271 13.02515564 -7.35357117 11.86056824 -7.35774231 10.66069031 C-7.35143799 9.58617615 -7.34513367 8.51166199 -7.33863831 7.40458679 C-7.33704712 6.45575623 -7.33545593 5.50692566 -7.33381653 4.52934265 C-6.81275656 -0.1425404 -4.06457888 0.01962261 0 0 Z " fill="#FDD32B" transform="translate(99.07984924316406,185.7477569580078)"/>
<path d="M0 0 C3.24992446 -0.05819424 6.49971435 -0.09366116 9.75 -0.125 C10.67039063 -0.14175781 11.59078125 -0.15851563 12.5390625 -0.17578125 C13.42851562 -0.18222656 14.31796875 -0.18867188 15.234375 -0.1953125 C16.05131836 -0.20578613 16.86826172 -0.21625977 17.70996094 -0.22705078 C20.21887518 0.02170084 21.83395625 0.74299871 24 2 C23.67 3.32 23.34 4.64 23 6 C19.7 6.66 16.4 7.32 13 8 C14.98 8 16.96 8 19 8 C18.01 8.99 17.02 9.98 16 11 C18.11987606 11.21157981 18.11987606 11.21157981 19.75 9.5625 C22.48370462 7.66409401 24.72763472 7.37185969 28 7 C27.125 12.75 27.125 12.75 26 15 C26.66 15.33 27.32 15.66 28 16 C30.2773501 13.18490007 30.2773501 13.18490007 30 10 C30.99 9.34 31.98 8.68 33 8 C39.26794258 17.40191388 39.26794258 17.40191388 41.125 23.0625 C41.47820312 24.12597656 41.83140625 25.18945312 42.1953125 26.28515625 C43 29 43 29 43 31 C32.80334342 33.9663001 24.6744436 33.86575998 15 29 C6.63932261 23.2258198 1.99876899 15.93327618 0 6 C-0.0471567 4.00055602 -0.05811498 1.99915548 0 0 Z " fill="#CB2F51" transform="translate(122,385)"/>
<path d="M0 0 C1.15628906 0.00607269 1.15628906 0.00607269 2.3359375 0.01226807 C3.12742187 0.01035461 3.91890625 0.00844116 4.734375 0.00646973 C6.4088574 0.00510789 8.08335035 0.00880425 9.7578125 0.01715088 C12.32576131 0.02785067 14.89301053 0.01725582 17.4609375 0.00445557 C19.08593905 0.00577716 20.71094016 0.00833956 22.3359375 0.01226807 C23.10679687 0.0082196 23.87765625 0.00417114 24.671875 0 C30.10601618 0.04797174 30.10601618 0.04797174 32.3359375 2.27789307 C31.9609375 5.90289307 31.9609375 5.90289307 31.3359375 9.27789307 C26.7159375 9.27789307 22.0959375 9.27789307 17.3359375 9.27789307 C17.34641113 10.69118896 17.35688477 12.10448486 17.36767578 13.56060791 C17.40379824 18.7899117 17.42680967 24.01920441 17.44580078 29.24859619 C17.45587609 31.51456556 17.46953668 33.78052187 17.48681641 36.04644775 C17.51099761 39.29810807 17.52240513 42.54959694 17.53125 45.80133057 C17.54157257 46.81907562 17.55189514 47.83682068 17.56253052 48.88540649 C17.56268158 49.82623077 17.56283264 50.76705505 17.56298828 51.73638916 C17.5674295 52.56689789 17.57187073 53.39740662 17.57644653 54.25308228 C17.3359375 56.27789307 17.3359375 56.27789307 15.3359375 58.27789307 C12.3359375 58.52789307 12.3359375 58.52789307 9.3359375 58.27789307 C7.3359375 56.27789307 7.3359375 56.27789307 7.09542847 54.25308228 C7.09986969 53.42257355 7.10431091 52.59206482 7.10888672 51.73638916 C7.10903778 50.79556488 7.10918884 49.8547406 7.10934448 48.88540649 C7.11966705 47.86766144 7.12998962 46.84991638 7.140625 45.80133057 C7.1434549 44.76094635 7.14628479 43.72056213 7.14920044 42.64865112 C7.16042046 39.31661613 7.18552835 35.9848472 7.2109375 32.65289307 C7.22096494 30.39768861 7.2300912 28.14247995 7.23828125 25.88726807 C7.26036576 20.35070678 7.29490804 14.81434507 7.3359375 9.27789307 C2.7159375 9.27789307 -1.9040625 9.27789307 -6.6640625 9.27789307 C-7.2890625 5.90289307 -7.2890625 5.90289307 -7.6640625 2.27789307 C-5.11840838 -0.26776106 -3.47230536 0.03065297 0 0 Z " fill="#FED82A" transform="translate(397.6640625,185.72210693359375)"/>
<path d="M0 0 C11 0 11 0 14.14819336 1.56274414 C16.63598091 4.83704646 16.63128783 6.90373718 16.62890625 10.99609375 C16.63131821 11.66665298 16.63373016 12.33721222 16.63621521 13.02809143 C16.63523821 14.44269742 16.62187885 15.85734232 16.59692383 17.27172852 C16.56265213 19.42792847 16.57625472 21.58001715 16.59570312 23.73632812 C16.5888026 25.11460066 16.57912832 26.49286266 16.56640625 27.87109375 C16.55009155 29.74172485 16.55009155 29.74172485 16.53344727 31.65014648 C15.86410851 35.85334877 15.42997878 37.40414862 12 40 C8.04 40 4.08 40 0 40 C0 26.8 0 13.6 0 0 Z " fill="#CF2C4D" transform="translate(224,195)"/>
<path d="M0 0 C1.65 0 3.3 0 5 0 C5 0.99 5 1.98 5 3 C5.66 2.01 6.32 1.02 7 0 C10.05239105 -0.71962068 12.92546606 -0.55608962 16 0 C22.84653691 4.97929957 26.55464539 12.85345586 28 21 C28.0265037 22.99982438 28.03115769 25.00024272 28 27 C24.75007554 27.05819424 21.50028565 27.09366116 18.25 27.125 C17.32960938 27.14175781 16.40921875 27.15851563 15.4609375 27.17578125 C14.12675781 27.18544922 14.12675781 27.18544922 12.765625 27.1953125 C11.54020996 27.21102295 11.54020996 27.21102295 10.29003906 27.22705078 C7.71206381 26.97145196 6.17396681 26.39838004 4 25 C3.34 24.01 2.68 23.02 2 22 C2.66 21.34 3.32 20.68 4 20 C2.68 20 1.36 20 0 20 C0 13.4 0 6.8 0 0 Z " fill="#CB2F51" transform="translate(351,362)"/>
<path d="M0 0 C3.7917631 0.71095558 5.31425729 1.79861848 8 4.5625 C8.61523438 7.890625 8.61523438 7.890625 8.59375 11.8125 C8.59379028 12.50762695 8.59383057 13.20275391 8.59387207 13.91894531 C8.58852383 15.38485788 8.57097005 16.85077037 8.54199219 18.31640625 C8.50012933 20.55558216 8.50092475 22.79174866 8.5078125 25.03125 C8.41838369 37.19356757 8.41838369 37.19356757 5 40.5625 C2.87890625 41.09375 2.87890625 41.09375 0.5625 41.0625 C-0.58025391 41.07796875 -0.58025391 41.07796875 -1.74609375 41.09375 C-4.91281471 40.34734783 -5.99208775 39.1104268 -8 36.5625 C-8.53344727 33.34204102 -8.53344727 33.34204102 -8.56640625 29.56640625 C-8.57260483 28.89584702 -8.57880341 28.22528778 -8.58518982 27.53440857 C-8.59227528 26.1198776 -8.58913597 24.70526301 -8.57641602 23.29077148 C-8.56255996 21.13433149 -8.59661158 18.98224466 -8.63476562 16.82617188 C-8.63571707 15.44791561 -8.63385665 14.06965395 -8.62890625 12.69140625 C-8.62963135 11.44431885 -8.63035645 10.19723145 -8.63110352 8.91235352 C-7.67652665 3.84552598 -5.11112682 0.95833628 0 0 Z " fill="#CF2D4D" transform="translate(298,269.4375)"/>
<path d="M0 0 C3.79172276 0.71094802 5.31301504 1.79992354 8 4.5625 C8.63110352 7.890625 8.63110352 7.890625 8.62890625 11.8125 C8.63131821 12.50762695 8.63373016 13.20275391 8.63621521 13.91894531 C8.63523815 15.38482381 8.62187751 16.85073984 8.59692383 18.31640625 C8.56260013 20.55596659 8.57626839 22.79158126 8.59570312 25.03125 C8.58880433 26.45835007 8.57913161 27.88543999 8.56640625 29.3125 C8.55009155 31.25382812 8.55009155 31.25382812 8.53344727 33.234375 C7.91963992 37.06385864 7.05242438 38.25436931 4 40.5625 C2 41.09375 2 41.09375 0 41.0625 C-0.99 41.07796875 -0.99 41.07796875 -2 41.09375 C-4.97119238 40.30452702 -6.09517392 38.95953801 -8 36.5625 C-8.53344727 33.34204102 -8.53344727 33.34204102 -8.56640625 29.56640625 C-8.57260483 28.89584702 -8.57880341 28.22528778 -8.58518982 27.53440857 C-8.59227528 26.1198776 -8.58913597 24.70526301 -8.57641602 23.29077148 C-8.56255996 21.13433149 -8.59661158 18.98224466 -8.63476562 16.82617188 C-8.63571707 15.44791561 -8.63385665 14.06965395 -8.62890625 12.69140625 C-8.62963135 11.44431885 -8.63035645 10.19723145 -8.63110352 8.91235352 C-7.67652665 3.84552598 -5.11112682 0.95833628 0 0 Z " fill="#CF2C4D" transform="translate(189,194.4375)"/>
<path d="M0 0 C3.79172276 0.71094802 5.31301504 1.79992354 8 4.5625 C8.63110352 7.890625 8.63110352 7.890625 8.62890625 11.8125 C8.63131821 12.50762695 8.63373016 13.20275391 8.63621521 13.91894531 C8.63523815 15.38482381 8.62187751 16.85073984 8.59692383 18.31640625 C8.56260013 20.55596659 8.57626839 22.79158126 8.59570312 25.03125 C8.58880433 26.45835007 8.57913161 27.88543999 8.56640625 29.3125 C8.55009155 31.25382812 8.55009155 31.25382812 8.53344727 33.234375 C7.91963992 37.06385864 7.05242438 38.25436931 4 40.5625 C2 41.09375 2 41.09375 0 41.0625 C-0.99 41.07796875 -0.99 41.07796875 -2 41.09375 C-4.97119238 40.30452702 -6.09517392 38.95953801 -8 36.5625 C-8.53344727 33.34204102 -8.53344727 33.34204102 -8.56640625 29.56640625 C-8.57260483 28.89584702 -8.57880341 28.22528778 -8.58518982 27.53440857 C-8.59227528 26.1198776 -8.58913597 24.70526301 -8.57641602 23.29077148 C-8.56255996 21.13433149 -8.59661158 18.98224466 -8.63476562 16.82617188 C-8.63571707 15.44791561 -8.63385665 14.06965395 -8.62890625 12.69140625 C-8.62963135 11.44431885 -8.63035645 10.19723145 -8.63110352 8.91235352 C-7.67652665 3.84552598 -5.11112682 0.95833628 0 0 Z " fill="#CF2C4D" transform="translate(147,194.4375)"/>
<path d="M0 0 C11.88 0 23.76 0 36 0 C32 2 32 2 28 2 C26.2488427 3.4166747 26.2488427 3.4166747 25 5 C25.33 3.68 25.66 2.36 26 1 C24.35 1 22.7 1 21 1 C21.08378906 2.02480469 21.16757812 3.04960937 21.25390625 4.10546875 C21.35712798 5.46611879 21.45997265 6.82679746 21.5625 8.1875 C21.64661133 9.19780273 21.64661133 9.19780273 21.73242188 10.22851562 C22.00963763 14.017131 21.96511161 17.31827794 21 21 C21.61875 20.79375 22.2375 20.5875 22.875 20.375 C23.57625 20.25125 24.2775 20.1275 25 20 C25.66 20.66 26.32 21.32 27 22 C26.01 22.66 25.02 23.32 24 24 C27.63423209 26.32590854 30.77088331 26.16265833 35 26 C35 26.33 35 26.66 35 27 C41.93 27.495 41.93 27.495 49 28 C47.55529649 19.73308548 46.37221741 13.35771208 41.20703125 6.671875 C40 5 40 5 40 3 C39.01 2.67 38.02 2.34 37 2 C37.33 1.34 37.66 0.68 38 0 C44.28300724 4.06547527 48.38383185 10.97938946 50.375 18.125 C52.16883117 29.24675325 52.16883117 29.24675325 49 34 C48.67 32.35 48.34 30.7 48 29 C47.42032471 29.03552979 46.84064941 29.07105957 46.2434082 29.10766602 C43.60012164 29.26591975 40.95636835 29.414297 38.3125 29.5625 C37.40048828 29.61857422 36.48847656 29.67464844 35.54882812 29.73242188 C34.21948242 29.80493164 34.21948242 29.80493164 32.86328125 29.87890625 C32.05157471 29.9260376 31.23986816 29.97316895 30.40356445 30.02172852 C27.8210515 29.99838228 25.51150091 29.5804792 23 29 C23.99 30.98 24.98 32.96 26 35 C25.34 35.66 24.68 36.32 24 37 C23.34 37 22.68 37 22 37 C21.67 35.35 21.34 33.7 21 32 C17.75150023 33.72226496 17.75150023 33.72226496 17 37 C16.85426942 38.47965926 16.75336732 39.96403843 16.68359375 41.44921875 C16.64169922 42.29677734 16.59980469 43.14433594 16.55664062 44.01757812 C16.51732422 44.89865234 16.47800781 45.77972656 16.4375 46.6875 C16.39431641 47.58017578 16.35113281 48.47285156 16.30664062 49.39257812 C16.20064647 51.59490108 16.09857949 53.79733473 16 56 C15.67 56 15.34 56 15 56 C14.67 50.72 14.34 45.44 14 40 C12.515 40.495 12.515 40.495 11 41 C11.28875 40.46375 11.5775 39.9275 11.875 39.375 C13.16711808 36.64719516 14.08558592 33.87387282 15 31 C13.56096954 31.62146808 12.12383207 32.24732059 10.6875 32.875 C9.48673828 33.39707031 9.48673828 33.39707031 8.26171875 33.9296875 C5.8038166 35.02571894 5.8038166 35.02571894 3 37 C3 36.34 3 35.68 3 35 C2.01 34.67 1.02 34.34 0 34 C1.485 33.505 1.485 33.505 3 33 C-1.62 33.33 -6.24 33.66 -11 34 C-7.82886541 32.4144327 -6.22586542 31.7125398 -2.92578125 31.21875 C-2.17619141 31.09886719 -1.42660156 30.97898437 -0.65429688 30.85546875 C0.91835682 30.61675067 2.49127917 30.37979638 4.06445312 30.14453125 C6.05387246 29.82471103 8.02906247 29.41890277 10 29 C10.33 28.34 10.66 27.68 11 27 C8.05618512 25.32871068 5.82616606 24.72268241 2.453125 24.5859375 C1.60878906 24.54726563 0.76445312 24.50859375 -0.10546875 24.46875 C-1.41451172 24.42234375 -1.41451172 24.42234375 -2.75 24.375 C-3.63816406 24.33632813 -4.52632813 24.29765625 -5.44140625 24.2578125 C-7.6273998 24.16379127 -9.81339062 24.07813857 -12 24 C-12 23.34 -12 22.68 -12 22 C-8.37 21.67 -4.74 21.34 -1 21 C-1.33 20.34 -1.66 19.68 -2 19 C-1.236875 19.165 -0.47375 19.33 0.3125 19.5 C3.03596236 20.09145396 3.03596236 20.09145396 6 20 C8.34210921 20.63514826 10.67684969 21.2986716 13 22 C12.01 20.35 11.02 18.7 10 17 C10.66 16.34 11.32 15.68 12 15 C12.66 15 13.32 15 14 15 C14.66 16.32 15.32 17.64 16 19 C19.32597281 15.46894039 19.46770164 12.49764465 19.6875 7.75 C19.75324219 6.48671875 19.81898438 5.2234375 19.88671875 3.921875 C19.92410156 2.95765625 19.96148437 1.9934375 20 1 C19.34 1 18.68 1 18 1 C18 3.31 18 5.62 18 8 C17.67 8 17.34 8 17 8 C17 5.69 17 3.38 17 1 C15.35 1.33 13.7 1.66 12 2 C12 3.98 12 5.96 12 8 C11.67 8 11.34 8 11 8 C10.67 5.69 10.34 3.38 10 1 C9.46375 1.185625 8.9275 1.37125 8.375 1.5625 C5.38009386 2.11419324 2.96254171 1.60597444 0 1 C0 0.67 0 0.34 0 0 Z " fill="#B05571" transform="translate(330,361)"/>
<path d="M0 0 C0.33 0.66 0.66 1.32 1 2 C-0.0828125 2.9590625 -0.0828125 2.9590625 -1.1875 3.9375 C-6.07660392 8.84053299 -9.46547398 15.05116178 -10 22 C-8.06183265 21.8858134 -6.12444901 21.75826577 -4.1875 21.625 C-2.56908203 21.52058594 -2.56908203 21.52058594 -0.91796875 21.4140625 C2.18626186 21.18804267 2.18626186 21.18804267 5 19 C5.7734375 19.433125 5.7734375 19.433125 6.5625 19.875 C9.11671384 21.15571385 9.11671384 21.15571385 12.5625 21.8125 C16 23 16 23 17.9375 25.625 C18.4634375 26.800625 18.4634375 26.800625 19 28 C20.32 27.67 21.64 27.34 23 27 C21.5 31.5 21.5 31.5 20 36 C20.32050798 38.33512959 20.65596692 40.66822025 21 43 C21.0841485 45.67405239 21.04695421 48.32361014 21 51 C20.67 51 20.34 51 20 51 C19.505 47.535 19.505 47.535 19 44 C18.67 47.96 18.34 51.92 18 56 C17.67 56 17.34 56 17 56 C16.67 50.72 16.34 45.44 16 40 C14.515 40.495 14.515 40.495 13 41 C13.28875 40.46375 13.5775 39.9275 13.875 39.375 C15.16711808 36.64719516 16.08558592 33.87387282 17 31 C15.56096954 31.62146808 14.12383207 32.24732059 12.6875 32.875 C11.48673828 33.39707031 11.48673828 33.39707031 10.26171875 33.9296875 C7.8038166 35.02571894 7.8038166 35.02571894 5 37 C5 36.34 5 35.68 5 35 C3.515 34.505 3.515 34.505 2 34 C3.485 33.505 3.485 33.505 5 33 C2.03 33 -0.94 33 -4 33 C-4 32.67 -4 32.34 -4 32 C3.92 30.515 3.92 30.515 12 29 C12.33 28.01 12.66 27.02 13 26 C10.04491553 25.16628641 7.29890387 24.82110466 4.234375 24.68359375 C2.90019531 24.62075195 2.90019531 24.62075195 1.5390625 24.55664062 C0.61867187 24.51732422 -0.30171875 24.47800781 -1.25 24.4375 C-2.65378906 24.37272461 -2.65378906 24.37272461 -4.0859375 24.30664062 C-6.39048641 24.2008195 -8.69513839 24.09873443 -11 24 C-10.71935082 26.31386295 -10.42518311 28.62609008 -10.125 30.9375 C-9.96257812 32.22527344 -9.80015625 33.51304687 -9.6328125 34.83984375 C-9.42398438 35.88269531 -9.21515625 36.92554688 -9 38 C-8.34 38.33 -7.68 38.66 -7 39 C-6.443125 40.299375 -6.443125 40.299375 -5.875 41.625 C-1.85047906 48.86913769 4.26901324 52.7958003 12.03515625 55.35546875 C17.02544694 56.44031455 21.92570865 56.31880364 27 56 C27.33 56.66 27.66 57.32 28 58 C20.53781227 60.48739591 13.06240571 58.90160855 6 56 C-3.60729515 51.03391024 -8.94385693 43.98963424 -12.30859375 33.796875 C-14.45482587 25.11494167 -12.98348454 17.25661562 -8.60546875 9.54296875 C-6.09226539 5.6045564 -3.884195 2.66776244 0 0 Z " fill="#AD5974" transform="translate(133,361)"/>
<path d="M0 0 C4.81430721 -0.56638908 7.20307814 1.17438373 11 4 C11.33 3.34 11.66 2.68 12 2 C11.34 1.34 10.68 0.68 10 0 C14.95 0 19.9 0 25 0 C24.56254361 9.33240309 21.72236586 14.67004242 14.9375 21.0625 C11.67380283 24.01598437 11.67380283 24.01598437 8.859375 23.94921875 C7 23 7 23 5.98828125 21.109375 C5.76527344 20.33078125 5.54226562 19.5521875 5.3125 18.75 C5.07144531 17.93015625 4.83039063 17.1103125 4.58203125 16.265625 C3.96335638 13.85736041 3.48757108 11.43785541 3 9 C2.05203595 5.98188744 1.03544283 2.98910856 0 0 Z " fill="#CA3153" transform="translate(158,390)"/>
<path d="M0 0 C4.79833434 3.87557774 9.42907477 7.92483886 13 13 C13 13.66 13 14.32 13 15 C13.63474075 16.34882408 14.29848848 17.6846659 15 19 C9.375 19.25 9.375 19.25 6 17 C5.01 17.66 4.02 18.32 3 19 C-0.13671875 19.1953125 -0.13671875 19.1953125 -3.6875 19.125 C-4.86699219 19.10695313 -6.04648438 19.08890625 -7.26171875 19.0703125 C-8.16535156 19.04710937 -9.06898437 19.02390625 -10 19 C-10.22839657 13.28192881 -9.09365491 9.74570873 -6 5 C-3.875 3.125 -3.875 3.125 -2 2 C-1.34 1.34 -0.68 0.68 0 0 Z " fill="#C83355" transform="translate(133,364)"/>
<path d="M0 0 C11.88452656 -0.4295612 11.88452656 -0.4295612 16 3 C17.56941198 4.56941198 17.2449847 6.14134994 17.3125 8.3125 C17.34988281 9.09238281 17.38726562 9.87226563 17.42578125 10.67578125 C16.82246571 13.96910918 15.70478763 15.06046936 13 17 C8.60786271 17.53045136 4.44112074 17.17764483 0 17 C0 11.39 0 5.78 0 0 Z " fill="#CF2E4D" transform="translate(362,195)"/>
<path d="M0 0 C2.9375 1.375 2.9375 1.375 5 4 C5.7199028 7.47075091 5.69033927 10.52585361 5 14 C2.9375 17.125 2.9375 17.125 0 19 C-3.86411566 19.61012353 -5.98664949 19.54565027 -9.4375 17.6875 C-11.97379983 13.3250643 -11.72286969 8.91104253 -11 4 C-8.29513083 -0.65237498 -5.10653046 -0.71670603 0 0 Z " fill="#CF2D4D" transform="translate(261,292)"/>
<path d="M0 0 C0.763125 0.165 1.52625 0.33 2.3125 0.5 C5.03596236 1.09145396 5.03596236 1.09145396 8 1 C9.39106407 1.4303097 10.76640868 1.91361516 12.125 2.4375 C12.82882812 2.70433594 13.53265625 2.97117187 14.2578125 3.24609375 C16 4 16 4 17 5 C17.04080783 6.99958364 17.04254356 9.00045254 17 11 C18.32 11.33 19.64 11.66 21 12 C20.68289063 12.78632813 20.36578125 13.57265625 20.0390625 14.3828125 C18.73699679 18.91556757 18.54459803 23.18278778 18.375 27.875 C18.33632813 28.75414062 18.29765625 29.63328125 18.2578125 30.5390625 C18.16418966 32.69238793 18.08103541 34.84616414 18 37 C17.67 37 17.34 37 17 37 C16.67 31.72 16.34 26.44 16 21 C15.01 21.33 14.02 21.66 13 22 C13.28875 21.46375 13.5775 20.9275 13.875 20.375 C15.16711808 17.64719516 16.08558592 14.87387282 17 12 C15.56096954 12.62146808 14.12383207 13.24732059 12.6875 13.875 C11.88699219 14.22304688 11.08648437 14.57109375 10.26171875 14.9296875 C7.8038166 16.02571894 7.8038166 16.02571894 5 18 C5 17.34 5 16.68 5 16 C4.01 15.67 3.02 15.34 2 15 C2.99 14.67 3.98 14.34 5 14 C0.38 14.33 -4.24 14.66 -9 15 C-5.82886541 13.4144327 -4.22586542 12.7125398 -0.92578125 12.21875 C0.19860352 12.03892578 0.19860352 12.03892578 1.34570312 11.85546875 C2.91835682 11.61675067 4.49127917 11.37979638 6.06445312 11.14453125 C8.05387246 10.82471103 10.02906247 10.41890277 12 10 C12.33 9.34 12.66 8.68 13 8 C10.05618512 6.32871068 7.82616606 5.72268241 4.453125 5.5859375 C3.60878906 5.54726563 2.76445312 5.50859375 1.89453125 5.46875 C0.58548828 5.42234375 0.58548828 5.42234375 -0.75 5.375 C-1.63816406 5.33632813 -2.52632813 5.29765625 -3.44140625 5.2578125 C-5.6273998 5.16379127 -7.81339062 5.07813857 -10 5 C-10 4.34 -10 3.68 -10 3 C-4.555 2.505 -4.555 2.505 1 2 C0.67 1.34 0.34 0.68 0 0 Z " fill="#B2536F" transform="translate(328,380)"/>
<path d="M0 0 C0.33 0.66 0.66 1.32 1 2 C-0.0828125 2.9590625 -0.0828125 2.9590625 -1.1875 3.9375 C-6.06087001 8.79698577 -9.73209526 15.36682393 -10.1328125 22.296875 C-10.11587216 27.61614211 -9.9530243 32.75836637 -9 38 C-8.34 38.33 -7.68 38.66 -7 39 C-6.443125 40.299375 -6.443125 40.299375 -5.875 41.625 C-1.85047906 48.86913769 4.26901324 52.7958003 12.03515625 55.35546875 C17.02544694 56.44031455 21.92570865 56.31880364 27 56 C27.33 56.66 27.66 57.32 28 58 C20.53781227 60.48739591 13.06240571 58.90160855 6 56 C-3.60729515 51.03391024 -8.94385693 43.98963424 -12.30859375 33.796875 C-14.45482587 25.11494167 -12.98348454 17.25661562 -8.60546875 9.54296875 C-6.09226539 5.6045564 -3.884195 2.66776244 0 0 Z " fill="#8D889B" transform="translate(133,361)"/>
<path d="M0 0 C1.81775418 2.72663126 2.49594917 4.32959016 3.2890625 7.4140625 C3.61777344 8.67863281 3.61777344 8.67863281 3.953125 9.96875 C4.17484375 10.8453125 4.3965625 11.721875 4.625 12.625 C4.85445313 13.50929687 5.08390625 14.39359375 5.3203125 15.3046875 C7 21.8234747 7 21.8234747 7 23 C2.71 23 -1.58 23 -6 23 C-4.52173913 4.52173913 -4.52173913 4.52173913 0 0 Z " fill="#D0314C" transform="translate(327,200)"/>
<path d="M0 0 C4.33333333 0 8.66666667 0 13 0 C13.0814222 2.22855574 13.13938079 4.45797655 13.1875 6.6875 C13.22230469 7.92886719 13.25710938 9.17023438 13.29296875 10.44921875 C12.9846829 14.18564321 12.18088273 16.00629483 10 19 C4.70920425 15.87362069 3.18721383 12.52901173 1.625 6.6875 C1.06270117 4.46344811 0.51428837 2.2356418 0 0 Z " fill="#CC2E51" transform="translate(337,362)"/>
<path d="M0 0 C4.29 0 8.58 0 13 0 C13.0814222 2.22855574 13.13938079 4.45797655 13.1875 6.6875 C13.22230469 7.92886719 13.25710937 9.17023438 13.29296875 10.44921875 C12.9846829 14.18564321 12.18088273 16.00629483 10 19 C6.90380968 16.93587312 6.45663709 16.20460159 5 13 C4.34 12.01 3.68 11.02 3 10 C1.86725137 6.70047991 0.95892035 3.35622122 0 0 Z " fill="#CB2F51" transform="translate(142,362)"/>
<path d="M0 0 C0 0.66 0 1.32 0 2 C-0.721875 2.680625 -1.44375 3.36125 -2.1875 4.0625 C-7.13363957 8.79726609 -10.73504089 15.41776604 -11.1328125 22.296875 C-11.11587216 27.61614211 -10.9530243 32.75836637 -10 38 C-9.34 38.33 -8.68 38.66 -8 39 C-7.443125 40.299375 -7.443125 40.299375 -6.875 41.625 C-2.19126095 50.05573029 5.03686708 53.34730809 14 56 C14 56.66 14 57.32 14 58 C5.92913168 57.64909268 -0.93519484 53.59554156 -6.375 47.6875 C-12.49966541 39.86250255 -14.86527729 30.80647599 -14 21 C-12.77473239 14.97749821 -7.36238421 0 0 0 Z " fill="#8F8599" transform="translate(329,361)"/>
<path d="M0 0 C1.6875 2.5 1.6875 2.5 3 5 C0.36 7.31 -2.28 9.62 -5 12 C-1.58900832 12 1.63088314 11.50854594 5 11 C2.14415227 12.90389849 0.0688238 13.69462177 -3.1875 14.625 C-4.08855469 14.88539063 -4.98960937 15.14578125 -5.91796875 15.4140625 C-6.94857422 15.70410156 -6.94857422 15.70410156 -8 16 C-7.34 16.66 -6.68 17.32 -6 18 C-8.31 18 -10.62 18 -13 18 C-14 15 -14 15 -13.15136719 13.2824707 C-12.70438477 12.66976318 -12.25740234 12.05705566 -11.796875 11.42578125 C-11.31089844 10.75869141 -10.82492187 10.09160156 -10.32421875 9.40429688 C-9.80472656 8.71400391 -9.28523438 8.02371094 -8.75 7.3125 C-8.24597656 6.61060547 -7.74195313 5.90871094 -7.22265625 5.18554688 C-3.38263028 0 -3.38263028 0 0 0 Z " fill="#C23C5C" transform="translate(370,364)"/>
<path d="M0 0 C3.51061223 -0.40121283 4.71951188 -0.20702695 7.625 1.9375 C8.800625 2.9584375 8.800625 2.9584375 10 4 C10.99 4.33 11.98 4.66 13 5 C14.68762851 6.6454378 16.3540349 8.31288577 18 10 C18.99 10.66 19.98 11.32 21 12 C20.67 13.32 20.34 14.64 20 16 C15.29250036 16 12.53330483 13.01462404 8.875 10.25 C8.13378906 9.71117187 7.39257812 9.17234375 6.62890625 8.6171875 C5.57123047 7.82441406 5.57123047 7.82441406 4.4921875 7.015625 C3.84620605 6.53383789 3.20022461 6.05205078 2.53466797 5.55566406 C0.75093695 3.74752947 0.3853874 2.47796749 0 0 Z " fill="#CD2C4F" transform="translate(353,390)"/>
<path d="M0 0 C0.99 1.485 0.99 1.485 2 3 C2.99 3 3.98 3 5 3 C7.04296875 4.6796875 7.04296875 4.6796875 9.1875 6.875 C9.90292969 7.59429687 10.61835938 8.31359375 11.35546875 9.0546875 C13 11 13 11 13 13 C6.5 17 6.5 17 2 17 C1.66151348 15.10507994 1.32943089 13.20901534 1 11.3125 C0.814375 10.25675781 0.62875 9.20101563 0.4375 8.11328125 C0.04931926 5.35095938 -0.08259976 2.78257957 0 0 Z " fill="#C93253" transform="translate(354,399)"/>
<path d="M0 0 C0.66 1.32 1.32 2.64 2 4 C-0.97 6.97 -3.94 9.94 -7 13 C-5.7625 12.649375 -4.525 12.29875 -3.25 11.9375 C0.25405292 10.94468501 1.20460255 11.05115064 5 12 C1.04 13.32 -2.92 14.64 -7 16 C-6.67 16.66 -6.34 17.32 -6 18 C-8.31 18 -10.62 18 -13 18 C-14 15 -14 15 -13.15136719 13.2824707 C-12.70438477 12.66976318 -12.25740234 12.05705566 -11.796875 11.42578125 C-11.31089844 10.75869141 -10.82492188 10.09160156 -10.32421875 9.40429688 C-9.80472656 8.71400391 -9.28523437 8.02371094 -8.75 7.3125 C-8.24597656 6.61060547 -7.74195313 5.90871094 -7.22265625 5.18554688 C-3.38263028 0 -3.38263028 0 0 0 Z " fill="#C13D5D" transform="translate(175,364)"/>
<path d="M0 0 C-2 3 -2 3 -5.73828125 3.94921875 C-7.26083077 4.20851758 -8.78576735 4.45408975 -10.3125 4.6875 C-11.45235352 4.88182617 -11.45235352 4.88182617 -12.61523438 5.08007812 C-16.44569905 5.70905973 -20.10477584 6.16327287 -24 6 C-24 4.35 -24 2.7 -24 1 C-20.9412258 0.43570348 -17.87779059 -0.09734969 -14.8125 -0.625 C-13.94818359 -0.78484375 -13.08386719 -0.9446875 -12.19335938 -1.109375 C-4.25311176 -2.44796081 -4.25311176 -2.44796081 0 0 Z " fill="#CE2B4E" transform="translate(342,388)"/>
<path d="M0 0 C0.66 0.99 1.32 1.98 2 3 C2.66 2.34 3.32 1.68 4 1 C4.12117187 1.63808594 4.24234375 2.27617187 4.3671875 2.93359375 C4.53476563 3.75988281 4.70234375 4.58617187 4.875 5.4375 C5.03742188 6.26121094 5.19984375 7.08492188 5.3671875 7.93359375 C5.68042969 8.95646484 5.68042969 8.95646484 6 10 C6.66 10.33 7.32 10.66 8 11 C8.99 9.35 9.98 7.7 11 6 C11.66 6.66 12.32 7.32 13 8 C12.34 9.32 11.68 10.64 11 12 C10.34 12 9.68 12 9 12 C9 12.66 9 13.32 9 14 C9.99 14 10.98 14 12 14 C12 15.65 12 17.3 12 19 C10.02 19.99 10.02 19.99 8 21 C1.11950791 10.79789104 1.11950791 10.79789104 0 6 C-0.66 5.01 -1.32 4.02 -2 3 C-1.34 3 -0.68 3 0 3 C0 2.01 0 1.02 0 0 Z " fill="#AB5C77" transform="translate(144,369)"/>
<path d="M0 0 C4.28921623 1.07230406 6.8541428 2.90999432 10.25 5.5625 C10.80429687 5.98724609 11.35859375 6.41199219 11.9296875 6.84960938 C13.29089411 7.89398341 14.64605833 8.94622464 16 10 C15.34 11.32 14.68 12.64 14 14 C11 14 11 14 8.95703125 12.25 C8.24933594 11.5075 7.54164063 10.765 6.8125 10 C6.09707031 9.2575 5.38164062 8.515 4.64453125 7.75 C4.10183594 7.1725 3.55914062 6.595 3 6 C2.34 6.99 1.68 7.98 1 9 C0.67 6.03 0.34 3.06 0 0 Z " fill="#C0405F" transform="translate(355,396)"/>
<path d="M0 0 C3.3125 0.375 3.3125 0.375 5.3125 1.375 C6.19921875 3.30078125 6.19921875 3.30078125 7 5.6875 C7.27199219 6.46738281 7.54398437 7.24726563 7.82421875 8.05078125 C8.3125 10.375 8.3125 10.375 7.3125 14.375 C3.6825 10.745 0.0525 7.115 -3.6875 3.375 C-5.3375 4.035 -6.9875 4.695 -8.6875 5.375 C-5.82566813 1.90611289 -4.57109915 0.46485754 0 0 Z " fill="#C03E5E" transform="translate(332.6875,361.625)"/>
<path d="M0 0 C1.65 0 3.3 0 5 0 C5 0.99 5 1.98 5 3 C5.66 2.01 6.32 1.02 7 0 C7.99 0 8.98 0 10 0 C9.55530671 5.03985731 7.28656638 7.37634988 4 11 C2.68 10.67 1.36 10.34 0 10 C0 6.7 0 3.4 0 0 Z " fill="#C03F5F" transform="translate(351,362)"/>
<path d="M0 0 C6.23563714 2.75101638 9.52467867 8.43280513 12.046875 14.53125 C13.98357965 20.45098874 15.39425967 26.51435082 13 32.5 C12.67 32.995 12.34 33.49 12 34 C11.05204504 31.15613511 10.96757455 29.82888081 11.125 26.9375 C11.19605153 18.19816167 8.23936933 11.79701967 3 5 C3 4.34 3 3.68 3 3 C2.01 2.67 1.02 2.34 0 2 C0 1.34 0 0.68 0 0 Z " fill="#8F8699" transform="translate(172,361)"/>
<path d="M0 0 C6.23563714 2.75101638 9.52467867 8.43280513 12.046875 14.53125 C13.98357965 20.45098874 15.39425967 26.51435082 13 32.5 C12.67 32.995 12.34 33.49 12 34 C10.78442257 31.56884514 10.99673591 30.20209683 11.125 27.5 C11.19012557 18.47359659 8.4301608 12.04453293 3 5 C3 4.34 3 3.68 3 3 C2.01 2.67 1.02 2.34 0 2 C0 1.34 0 0.68 0 0 Z " fill="#8E889A" transform="translate(367,361)"/>
<path d="M0 0 C0.99 0 1.98 0 3 0 C3.28875 0.639375 3.5775 1.27875 3.875 1.9375 C4.82823451 4.15206079 4.82823451 4.15206079 7 5 C7 5.66 7 6.32 7 7 C7.99 7 8.98 7 10 7 C10 8.65 10 10.3 10 12 C8.02 12.99 8.02 12.99 6 14 C3.32717367 10.12901015 0.87339487 6.33838811 -1 2 C-0.67 1.34 -0.34 0.68 0 0 Z " fill="#A7637C" transform="translate(341,376)"/>
<path d="M0 0 C4.95 0 9.9 0 15 0 C15 1.98 15 3.96 15 6 C12 7 12 7 9.08203125 5.78515625 C7.46361328 4.93244141 7.46361328 4.93244141 5.8125 4.0625 C4.72582031 3.49660156 3.63914062 2.93070312 2.51953125 2.34765625 C1.68808594 1.90292969 0.85664063 1.45820313 0 1 C0 0.67 0 0.34 0 0 Z " fill="#CE2B4E" transform="translate(363,390)"/>
<path d="M0 0 C2.31 0 4.62 0 7 0 C6.01 2.31 5.02 4.62 4 7 C4.66 7 5.32 7 6 7 C4.79618552 9.49361571 3.54571278 11.68143083 2 14 C1.34 14 0.68 14 0 14 C0 9.38 0 4.76 0 0 Z " fill="#BA4765" transform="translate(156,362)"/>
<path d="M0 0 C6.6 0 13.2 0 20 0 C20 0.66 20 1.32 20 2 C17.77149723 2.33774332 15.54216533 2.6700187 13.3125 3 C11.45044922 3.2784375 11.45044922 3.2784375 9.55078125 3.5625 C6.64113629 3.92100411 3.92299978 4.08942256 1 4 C0.67 4.66 0.34 5.32 0 6 C0 4.02 0 2.04 0 0 Z " fill="#C63758" transform="translate(317,385)"/>
<path d="M0 0 C6.6 0 13.2 0 20 0 C20 0.66 20 1.32 20 2 C17.77149723 2.33774332 15.54216533 2.6700187 13.3125 3 C11.45044922 3.2784375 11.45044922 3.2784375 9.55078125 3.5625 C6.64113629 3.92100411 3.92299978 4.08942256 1 4 C0.67 4.66 0.34 5.32 0 6 C0 4.02 0 2.04 0 0 Z " fill="#C63758" transform="translate(122,385)"/>
<path d="M0 0 C0.66 0 1.32 0 2 0 C0.87473493 7.35949226 -3.26133206 12.96576818 -9.125 17.4375 C-15.5982906 22 -15.5982906 22 -20 22 C-20 21.34 -20 20.68 -20 20 C-19.35933594 19.731875 -18.71867188 19.46375 -18.05859375 19.1875 C-10.15145401 15.60512968 -4.59418849 11.07710237 -1.0625 3 C-0.5365625 1.515 -0.5365625 1.515 0 0 Z " fill="#8E869A" transform="translate(182,396)"/>
<path d="M0 0 C4.97306516 0.49730652 8.63799813 1.55302334 13 4 C12.34 5.98 11.68 7.96 11 10 C9.53426066 9.09522263 8.07764244 8.17565859 6.625 7.25 C5.81289062 6.73953125 5.00078125 6.2290625 4.1640625 5.703125 C1.91444321 3.9326665 1.04093152 2.63092581 0 0 Z " fill="#C33B5B" transform="translate(169,393)"/>
<path d="M0 0 C0.66 0 1.32 0 2 0 C0.87473493 7.35949226 -3.26133206 12.96576818 -9.125 17.4375 C-15.5982906 22 -15.5982906 22 -20 22 C-20 21.34 -20 20.68 -20 20 C-19.35933594 19.731875 -18.71867187 19.46375 -18.05859375 19.1875 C-10.15145401 15.60512968 -4.59418849 11.07710237 -1.0625 3 C-0.5365625 1.515 -0.5365625 1.515 0 0 Z " fill="#8E879A" transform="translate(377,396)"/>
<path d="M0 0 C1.1055189 0.93590504 2.20935453 1.87379858 3.3125 2.8125 C3.92738281 3.33457031 4.54226562 3.85664063 5.17578125 4.39453125 C8.51952278 7.3373102 8.51952278 7.3373102 10 9 C10 9.66 10 10.32 10 11 C7 13 7 13 4.921875 12.8984375 C3 12 3 12 1.953125 10.0390625 C1.72109375 9.24242187 1.4890625 8.44578125 1.25 7.625 C1.00765625 6.83351563 0.7653125 6.04203125 0.515625 5.2265625 C0 3 0 3 0 0 Z " fill="#CE2B4E" transform="translate(162,401)"/>
<path d="M0 0 C-3 2 -3 2 -6 2 C-6 2.66 -6 3.32 -6 4 C-9.82320557 5.42258812 -12.91281305 6.24042276 -17 6 C-17.33 4.35 -17.66 2.7 -18 1 C-16.12528812 0.83012319 -14.25021305 0.66425224 -12.375 0.5 C-11.33085937 0.4071875 -10.28671875 0.314375 -9.2109375 0.21875 C-6.12853212 0.00875645 -3.08834771 -0.03709727 0 0 Z " fill="#C33B5B" transform="translate(141,393)"/>
<path d="M0 0 C-3 2 -3 2 -6 2 C-6 2.66 -6 3.32 -6 4 C-9.82320557 5.42258812 -12.91281305 6.24042276 -17 6 C-17.33 4.35 -17.66 2.7 -18 1 C-16.12528812 0.83012319 -14.25021305 0.66425224 -12.375 0.5 C-11.33085937 0.4071875 -10.28671875 0.314375 -9.2109375 0.21875 C-6.12853212 0.00875645 -3.08834771 -0.03709727 0 0 Z " fill="#C53859" transform="translate(336,393)"/>
<path d="M0 0 C0.99 0.99 1.98 1.98 3 3 C2.01 3 1.02 3 0 3 C1.32 5.97 2.64 8.94 4 12 C3.34 12.66 2.68 13.32 2 14 C1.34 14 0.68 14 0 14 C-0.33 12.35 -0.66 10.7 -1 9 C-2.98 8.34 -4.96 7.68 -7 7 C-6.67 6.01 -6.34 5.02 -6 4 C-4.68 4 -3.36 4 -2 4 C-1.34 2.68 -0.68 1.36 0 0 Z " fill="#A7627C" transform="translate(352,384)"/>
<path d="M0 0 C0.99 0.33 1.98 0.66 3 1 C3 1.66 3 2.32 3 3 C1 5 1 5 -2.9140625 5.1953125 C-4.48449351 5.18200376 -6.05486221 5.15813602 -7.625 5.125 C-8.42679688 5.11597656 -9.22859375 5.10695313 -10.0546875 5.09765625 C-12.03658523 5.07406223 -14.01832981 5.03819065 -16 5 C-15.67 3.68 -15.34 2.36 -15 1 C-15 1.66 -15 2.32 -15 3 C-13.06183265 2.8858134 -11.12444901 2.75826577 -9.1875 2.625 C-8.10855469 2.55539062 -7.02960938 2.48578125 -5.91796875 2.4140625 C-2.81373814 2.18804267 -2.81373814 2.18804267 0 0 Z " fill="#B64D6A" transform="translate(138,380)"/>
<path d="M0 0 C1.2065625 0.0309375 1.2065625 0.0309375 2.4375 0.0625 C3.0625 2.4375 3.0625 2.4375 3.4375 5.0625 C2.7775 5.7225 2.1175 6.3825 1.4375 7.0625 C-1.1875 6.6875 -1.1875 6.6875 -3.5625 6.0625 C-3.605221 4.39638095 -3.60313832 2.72867115 -3.5625 1.0625 C-2.5625 0.0625 -2.5625 0.0625 0 0 Z " fill="#FCCF2B" transform="translate(298.5625,286.9375)"/>
<path d="M0 0 C6.27 0 12.54 0 19 0 C18.67 0.99 18.34 1.98 18 3 C18 2.34 18 1.68 18 1 C11.565 1.495 11.565 1.495 5 2 C5.66 2.66 6.32 3.32 7 4 C5.02 4.99 5.02 4.99 3 6 C1.68 5.01 0.36 4.02 -1 3 C-0.67 2.01 -0.34 1.02 0 0 Z " fill="#B84B68" transform="translate(165,389)"/>
<path d="M0 0 C4.56030824 3.80475422 8.85089392 7.74969621 13 12 C12.67 12.66 12.34 13.32 12 14 C10.22750476 12.5645497 8.45706424 11.12656197 6.6875 9.6875 C5.70136719 8.88699219 4.71523438 8.08648437 3.69921875 7.26171875 C1.68397834 5.57311644 -0.19488009 3.90369301 -2 2 C-1.34 1.34 -0.68 0.68 0 0 Z " fill="#CF2B4E" transform="translate(328,364)"/>
<path d="M0 0 C4.88049925 3.9419417 9.0580583 8.11950075 13 13 C9.41486894 11.37815499 6.41007677 9.20743761 3.25 6.875 C2.26515625 6.15054687 1.2803125 5.42609375 0.265625 4.6796875 C-0.48203125 4.12539063 -1.2296875 3.57109375 -2 3 C-1.34 2.01 -0.68 1.02 0 0 Z " fill="#CF2B4E" transform="translate(133,364)"/>
<path d="M0 0 C0.33 0 0.66 0 1 0 C1.99 6.6 2.98 13.2 4 20 C2.68 20 1.36 20 0 20 C0 13.4 0 6.8 0 0 Z " fill="#CE2B4E" transform="translate(346,398)"/>
<path d="M0 0 C0 0.99 0 1.98 0 3 C-6.6 3 -13.2 3 -20 3 C-20 2.67 -20 2.34 -20 2 C-17.79248152 1.66131223 -15.58394089 1.32928311 -13.375 1 C-12.14523437 0.814375 -10.91546875 0.62875 -9.6484375 0.4375 C-6.3833973 0.04597484 -3.28287549 -0.08080924 0 0 Z " fill="#CE2B4E" transform="translate(379,386)"/>
<path d="M0 0 C2.02225194 3.0333779 2.99347524 5.61344489 4.125 9.0625 C4.47820312 10.12597656 4.83140625 11.18945312 5.1953125 12.28515625 C6 15 6 15 6 17 C4.68 17 3.36 17 2 17 C1.66151348 15.10507994 1.32943089 13.20901534 1 11.3125 C0.814375 10.25675781 0.62875 9.20101563 0.4375 8.11328125 C0.04931926 5.35095938 -0.08259976 2.78257957 0 0 Z " fill="#CE2B4E" transform="translate(354,399)"/>
<path d="M0 0 C0 0.99 0 1.98 0 3 C-6.6 3 -13.2 3 -20 3 C-20 2.67 -20 2.34 -20 2 C-17.79248152 1.66131223 -15.58394089 1.32928311 -13.375 1 C-12.14523438 0.814375 -10.91546875 0.62875 -9.6484375 0.4375 C-6.3833973 0.04597484 -3.28287549 -0.08080924 0 0 Z " fill="#CF2B4E" transform="translate(184,386)"/>
<path d="M0 0 C2.9375 1.5625 2.9375 1.5625 6 4 C6.6875 7.25 6.6875 7.25 7 11 C7.8708738 13.73224692 8.92570843 16.33762523 10 19 C9.01 18.67 8.02 18.34 7 18 C5.83203125 15.27734375 5.83203125 15.27734375 4.8125 11.9375 C4.29623047 10.28041016 4.29623047 10.28041016 3.76953125 8.58984375 C3.51558594 7.73519531 3.26164063 6.88054687 3 6 C2.34 6.66 1.68 7.32 1 8 C0.67 5.36 0.34 2.72 0 0 Z " fill="#B54E6B" transform="translate(157,396)"/>
<path d="M0 0 C0.66 0.33 1.32 0.66 2 1 C0.35 2.98 -1.3 4.96 -3 7 C-3.66 6.01 -4.32 5.02 -5 4 C-3.35 2.68 -1.7 1.36 0 0 Z M-7 5 C-6.34 5.33 -5.68 5.66 -5 6 C-7.64 8.64 -10.28 11.28 -13 14 C-13.66 13.67 -14.32 13.34 -15 13 C-12.36 10.36 -9.72 7.72 -7 5 Z " fill="#BE4261" transform="translate(339,393)"/>
<path d="M0 0 C0.66 0.33 1.32 0.66 2 1 C1.01 1.33 0.02 1.66 -1 2 C-1.3721042 3.32303717 -1.70630173 4.65737935 -2 6 C-2.99 6.495 -2.99 6.495 -4 7 C-4.33 6.01 -4.66 5.02 -5 4 C-3.35 2.68 -1.7 1.36 0 0 Z M-7 5 C-6.34 5.33 -5.68 5.66 -5 6 C-7.64 8.64 -10.28 11.28 -13 14 C-13.66 13.67 -14.32 13.34 -15 13 C-12.36 10.36 -9.72 7.72 -7 5 Z " fill="#BE4260" transform="translate(144,393)"/>
<path d="M0 0 C2.875 -0.125 2.875 -0.125 6 0 C8 2 8 2 8 6 C4.51460083 5.35455571 1.97180943 3.89865603 -1 2 C-0.67 1.34 -0.34 0.68 0 0 Z " fill="#AE5974" transform="translate(337,383)"/>
<path d="M0 0 C3.76119476 0.62393651 6.18960042 2.34773715 9.25 4.5625 C10.14203125 5.20316406 11.0340625 5.84382813 11.953125 6.50390625 C12.96632813 7.24447266 12.96632813 7.24447266 14 8 C13.01 8.495 13.01 8.495 12 9 C9.1796875 7.78515625 9.1796875 7.78515625 5.875 6.0625 C4.77929688 5.49660156 3.68359375 4.93070312 2.5546875 4.34765625 C1.71164062 3.90292969 0.86859375 3.45820313 0 3 C0 2.01 0 1.02 0 0 Z " fill="#CE2B4E" transform="translate(320,373)"/>
<path d="M0 0 C3.76119476 0.62393651 6.18960042 2.34773715 9.25 4.5625 C10.14203125 5.20316406 11.0340625 5.84382813 11.953125 6.50390625 C12.96632812 7.24447266 12.96632812 7.24447266 14 8 C13.01 8.495 13.01 8.495 12 9 C9.1796875 7.78515625 9.1796875 7.78515625 5.875 6.0625 C4.77929688 5.49660156 3.68359375 4.93070312 2.5546875 4.34765625 C1.71164063 3.90292969 0.86859375 3.45820313 0 3 C0 2.01 0 1.02 0 0 Z " fill="#CE2B4E" transform="translate(125,373)"/>
<path d="M0 0 C1.65 0 3.3 0 5 0 C3.77263971 4.15414253 2.672336 6.43688534 0 10 C0 6.7 0 3.4 0 0 Z " fill="#CF2B4E" transform="translate(351,362)"/>
<path d="M0 0 C1.65 0 3.3 0 5 0 C3.77263971 4.15414253 2.672336 6.43688534 0 10 C0 6.7 0 3.4 0 0 Z " fill="#CD2C4F" transform="translate(156,362)"/>
<path d="M0 0 C0.33 0.66 0.66 1.32 1 2 C0.22265625 4.1640625 0.22265625 4.1640625 -0.9375 6.625 C-1.31777344 7.44226563 -1.69804687 8.25953125 -2.08984375 9.1015625 C-2.39019531 9.72804688 -2.69054687 10.35453125 -3 11 C-3.99 10.67 -4.98 10.34 -6 10 C-5.49477778 5.62140745 -2.82172778 3.18348776 0 0 Z " fill="#CE2B4E" transform="translate(340,405)"/>
<path d="M0 0 C0 3.60573896 -0.81707462 4.41336566 -3 7.1875 C-3.556875 7.90292969 -4.11375 8.61835938 -4.6875 9.35546875 C-5.120625 9.89816406 -5.55375 10.44085938 -6 11 C-6.99 10.67 -7.98 10.34 -9 10 C-8.06409496 8.8944811 -7.12620142 7.79064547 -6.1875 6.6875 C-5.66542969 6.07261719 -5.14335937 5.45773437 -4.60546875 4.82421875 C-3.12827531 3.14575321 -1.59960869 1.56117966 0 0 Z " fill="#CE2B4E" transform="translate(334,398)"/>
<path d="M0 0 C0 3.60573896 -0.81707462 4.41336566 -3 7.1875 C-3.556875 7.90292969 -4.11375 8.61835938 -4.6875 9.35546875 C-5.120625 9.89816406 -5.55375 10.44085938 -6 11 C-6.99 10.67 -7.98 10.34 -9 10 C-8.06409496 8.8944811 -7.12620142 7.79064547 -6.1875 6.6875 C-5.66542969 6.07261719 -5.14335937 5.45773437 -4.60546875 4.82421875 C-3.12827531 3.14575321 -1.59960869 1.56117966 0 0 Z " fill="#CE2B4E" transform="translate(139,398)"/>
<path d="M0 0 C0.99 0 1.98 0 3 0 C2.64950425 3.24208567 2.43778819 4.61527704 -0.0625 6.8125 C-0.701875 7.204375 -1.34125 7.59625 -2 8 C-2.66 7.67 -3.32 7.34 -4 7 C-2.68 4.69 -1.36 2.38 0 0 Z " fill="#C63758" transform="translate(163,362)"/>
<path d="M0 0 C0.99 0.33 1.98 0.66 3 1 C3 6.94 3 12.88 3 19 C2.67 19 2.34 19 2 19 C1.67 13.72 1.34 8.44 1 3 C0.01 3.33 -0.98 3.66 -2 4 C-1.34 2.68 -0.68 1.36 0 0 Z " fill="#B2526F" transform="translate(148,398)"/>
<path d="M0 0 C1.32 0 2.64 0 4 0 C4.33 1.32 4.66 2.64 5 4 C3.02 4.99 3.02 4.99 1 6 C-0.0625 4.125 -0.0625 4.125 -1 2 C-0.67 1.34 -0.34 0.68 0 0 Z " fill="#74AEBA" transform="translate(346,384)"/>
<path d="M0 0 C1.32 0 2.64 0 4 0 C4.33 1.32 4.66 2.64 5 4 C3.02 4.99 3.02 4.99 1 6 C-0.0625 4.125 -0.0625 4.125 -1 2 C-0.67 1.34 -0.34 0.68 0 0 Z " fill="#74AEBA" transform="translate(151,384)"/>
<path d="M0 0 C0.66 0.66 1.32 1.32 2 2 C1.34 3.32 0.68 4.64 0 6 C-0.66 6 -1.32 6 -2 6 C-2 6.66 -2 7.32 -2 8 C-1.01 8 -0.02 8 1 8 C0.67 8.99 0.34 9.98 0 11 C0 10.34 0 9.68 0 9 C-1.32 9 -2.64 9 -4 9 C-3.35455571 5.51460083 -1.89865603 2.97180943 0 0 Z " fill="#A4667E" transform="translate(155,375)"/>
<path d="M0 0 C0.99 0 1.98 0 3 0 C3.33 2.31 3.66 4.62 4 7 C4.66 7 5.32 7 6 7 C6 8.98 6 10.96 6 13 C5.67 13 5.34 13 5 13 C5 11.35 5 9.7 5 8 C4.01 7.67 3.02 7.34 2 7 C0.8125 3.4375 0.8125 3.4375 0 0 Z " fill="#C73556" transform="translate(337,362)"/>
<path d="M0 0 C0.33 0.99 0.66 1.98 1 3 C1.61875 2.79375 2.2375 2.5875 2.875 2.375 C3.926875 2.189375 3.926875 2.189375 5 2 C5.66 2.66 6.32 3.32 7 4 C3.25 6 3.25 6 1 6 C1 5.34 1 4.68 1 4 C0.01 4 -0.98 4 -2 4 C-2 3.34 -2 2.68 -2 2 C-1.34 2 -0.68 2 0 2 C0 1.34 0 0.68 0 0 Z " fill="#B44F6C" transform="translate(155,379)"/>
<path d="M0 0 C0.66 0.99 1.32 1.98 2 3 C2.66 2.34 3.32 1.68 4 1 C4.33 2.98 4.66 4.96 5 7 C4.01 7.495 4.01 7.495 3 8 C1.35 6.35 -0.3 4.7 -2 3 C-1.34 3 -0.68 3 0 3 C0 2.01 0 1.02 0 0 Z " fill="#B3516E" transform="translate(144,369)"/>
<path d="M0 0 C0.680625 0.165 1.36125 0.33 2.0625 0.5 C5.4164822 1.07089059 8.60389805 1.06659023 12 1 C12 1.33 12 1.66 12 2 C11.21625 2.12375 10.4325 2.2475 9.625 2.375 C6.85942178 2.79117993 6.85942178 2.79117993 5 5 C3.35 3.35 1.7 1.7 0 0 Z " fill="#AB5D77" transform="translate(158,386)"/>
<path d="M0 0 C2.64 0.66 5.28 1.32 8 2 C7.01 3.485 7.01 3.485 6 5 C3.5625 4.1875 3.5625 4.1875 1 3 C0.67 2.01 0.34 1.02 0 0 Z " fill="#BB4564" transform="translate(359,390)"/>
<path d="M0 0 C1.32 1.32 2.64 2.64 4 4 C3.01 5.485 3.01 5.485 2 7 C0.4375 5.1875 0.4375 5.1875 -1 3 C-0.67 2.01 -0.34 1.02 0 0 Z " fill="#AC5C76" transform="translate(157,391)"/>
</svg>
