<?xml version="1.0" standalone="no"?>
<!DOCTYPE svg PUBLIC "-//W3C//DTD SVG 20010904//EN"
 "http://www.w3.org/TR/2001/REC-SVG-20010904/DTD/svg10.dtd">
<svg version="1.0" xmlns="http://www.w3.org/2000/svg"
 width="1024.000000pt" height="1024.000000pt" viewBox="0 0 1024.000000 1024.000000"
 preserveAspectRatio="xMidYMid meet">

<g transform="translate(0.000000,1024.000000) scale(0.100000,-0.100000)"
fill="#000000" stroke="none">
<path d="M4352 4655 c0 -16 2 -22 5 -12 2 9 2 23 0 30 -3 6 -5 -1 -5 -18z"/>
<path d="M5658 4533 c7 -3 16 -2 19 1 4 3 -2 6 -13 5 -11 0 -14 -3 -6 -6z"/>
<path d="M4190 3155 l0 -116 -25 25 c-45 45 -126 57 -197 30 -195 -76 -196
-376 -2 -450 59 -22 153 -16 194 14 36 27 40 27 40 2 0 -18 7 -20 65 -20 l65
0 0 315 0 315 -70 0 -70 0 0 -115z m-59 -182 c101 -60 61 -223 -54 -223 -69 1
-107 44 -107 122 0 51 21 85 64 104 42 18 62 17 97 -3z"/>
<path d="M4652 3235 c-75 -23 -145 -86 -185 -165 -29 -60 -32 -205 -4 -261 30
-60 86 -118 141 -146 67 -35 198 -44 273 -19 55 18 133 71 133 90 0 6 -20 29
-45 49 -41 35 -47 37 -61 22 -62 -62 -179 -68 -248 -14 -96 75 -85 243 18 304
41 24 55 27 110 23 59 -3 72 -9 132 -53 10 -7 25 1 56 33 l43 43 -41 39 c-26
24 -61 44 -95 54 -63 19 -168 20 -227 1z"/>
<path d="M2180 2940 l0 -300 70 0 69 0 3 108 3 107 143 3 142 3 0 54 0 55
-139 0 c-77 0 -142 3 -144 8 -3 4 -3 37 0 75 l6 67 153 0 154 0 0 60 0 60
-230 0 -230 0 0 -300z"/>
<path d="M6037 3203 c-4 -3 -7 -30 -7 -60 l0 -53 -35 0 -35 0 0 -55 0 -55 34
0 34 0 3 -124 c4 -107 7 -128 25 -153 38 -51 81 -73 144 -73 47 0 120 15 120
24 0 1 -7 24 -16 50 -16 48 -17 48 -54 42 -65 -10 -74 5 -74 128 l-1 106 58 0
57 0 0 55 0 55 -55 0 -55 0 0 60 0 60 -68 0 c-38 0 -72 -3 -75 -7z"/>
<path d="M2857 3096 c-206 -58 -240 -329 -55 -432 47 -26 63 -29 139 -29 78 0
90 3 134 30 123 76 155 227 73 341 -58 81 -184 120 -291 90z m153 -131 c32
-29 45 -88 31 -134 -25 -84 -120 -110 -180 -50 -27 27 -31 37 -31 86 0 50 3
58 35 90 33 33 39 35 81 30 25 -2 54 -13 64 -22z"/>
<path d="M3435 3101 c-119 -33 -184 -116 -185 -234 0 -135 105 -235 249 -237
103 0 188 44 231 120 21 37 25 58 25 120 0 104 -38 165 -128 211 -42 22 -146
33 -192 20z m124 -126 c25 -13 36 -30 55 -89 10 -30 -12 -93 -41 -115 -38 -30
-103 -28 -142 4 -41 35 -51 99 -24 152 31 60 92 80 152 48z"/>
<path d="M5157 3084 c-55 -17 -64 -32 -47 -77 19 -47 24 -50 65 -33 21 9 62
16 92 16 44 0 58 -5 78 -25 44 -43 35 -51 -70 -58 -150 -10 -205 -46 -205
-134 0 -62 22 -97 76 -123 58 -29 150 -24 196 10 l29 22 6 -21 c5 -19 13 -21
69 -21 l64 0 0 154 c0 203 -16 246 -105 287 -50 23 -178 24 -248 3z m213 -279
c0 -42 -41 -75 -93 -75 -50 0 -67 13 -67 52 0 36 22 47 98 48 60 0 62 -1 62
-25z"/>
<path d="M5630 2870 l0 -230 69 0 69 0 4 136 3 136 32 28 c20 18 48 31 77 35
l46 7 0 59 0 59 -35 0 c-40 0 -84 -19 -106 -46 -13 -16 -14 -15 -19 12 -5 28
-7 29 -73 32 l-67 3 0 -231z"/>
</g>
</svg>
